<svg xmlns="http://www.w3.org/2000/svg" xmlns:xlink="http://www.w3.org/1999/xlink" version="1.1" x="0px" y="0px" viewBox="0 0 100 100" enable-background="new 0 0 100 100" xml:space="preserve"><g><path d="M89.3,47.4H60.8c-1.1-5.1-5.7-8.9-11.1-8.9s-10,3.8-11.1,8.9H10.8c-1.4,0-2.5,1.1-2.5,2.5c0,1.4,1.1,2.5,2.5,2.5h27.8   c1.1,5.1,5.7,8.9,11.1,8.9s10-3.8,11.1-8.9h28.5c1.4,0,2.5-1.1,2.5-2.5C91.8,48.6,90.6,47.4,89.3,47.4z"/><path d="M19.8,32.4c5.4,0,10-3.8,11.1-8.9h58.3c1.4,0,2.5-1.1,2.5-2.5c0-1.4-1.1-2.5-2.5-2.5H30.9c-1.1-5.1-5.7-8.9-11.1-8.9   C13.5,9.6,8.4,14.8,8.4,21S13.5,32.4,19.8,32.4z"/><path d="M80.3,67.6c-5.4,0-9.9,3.8-11.1,8.8H10.8c-1.4,0-2.5,1.1-2.5,2.5c0,1.4,1.1,2.5,2.5,2.5h58.4c1.1,5.1,5.7,9,11.1,9   c6.3,0,11.4-5.1,11.4-11.4S86.5,67.6,80.3,67.6z"/></g></svg>