<svg xmlns="http://www.w3.org/2000/svg" version="1.1" viewBox="-5.0 -10.0 110.0 100.0">
 <path d="m46.875 62.5c0-2.4883-0.98828-4.8711-2.7461-6.6289-1.7578-1.7578-4.1406-2.7461-6.6289-2.7461h-18.75c-2.4883 0-4.8711 0.98828-6.6289 2.7461-1.7578 1.7578-2.7461 4.1406-2.7461 6.6289v18.75c0 2.4883 0.98828 4.8711 2.7461 6.6289 1.7578 1.7578 4.1406 2.7461 6.6289 2.7461h18.75c2.4883 0 4.8711-0.98828 6.6289-2.7461 1.7578-1.7578 2.7461-4.1406 2.7461-6.6289zm43.75 0c0-2.4883-0.98828-4.8711-2.7461-6.6289-1.7578-1.7578-4.1406-2.7461-6.6289-2.7461h-18.75c-2.4883 0-4.8711 0.98828-6.6289 2.7461-1.7578 1.7578-2.7461 4.1406-2.7461 6.6289v18.75c0 2.4883 0.98828 4.8711 2.7461 6.6289 1.7578 1.7578 4.1406 2.7461 6.6289 2.7461h18.75c2.4883 0 4.8711-0.98828 6.6289-2.7461 1.7578-1.7578 2.7461-4.1406 2.7461-6.6289zm0-43.75c0-2.4883-0.98828-4.8711-2.7461-6.6289-1.7578-1.7578-4.1406-2.7461-6.6289-2.7461h-18.75c-2.4883 0-4.8711 0.98828-6.6289 2.7461-1.7578 1.7578-2.7461 4.1406-2.7461 6.6289v18.75c0 2.4883 0.98828 4.8711 2.7461 6.6289 1.7578 1.7578 4.1406 2.7461 6.6289 2.7461h18.75c2.4883 0 4.8711-0.98828 6.6289-2.7461 1.7578-1.7578 2.7461-4.1406 2.7461-6.6289zm-62.5-9.375c-10.348 0-18.75 8.4023-18.75 18.75s8.4023 18.75 18.75 18.75 18.75-8.4023 18.75-18.75-8.4023-18.75-18.75-18.75z" fill-rule="evenodd"/>
</svg>