<svg xmlns="http://www.w3.org/2000/svg" xmlns:xlink="http://www.w3.org/1999/xlink" version="1.1" x="0px" y="0px" viewBox="145 347 100 100" style="enable-background:new 145 347 100 100;" xml:space="preserve">
 <path d="M153.6,428c0,2.4,2.3,4.3,5.1,4.3h5.8c2.8,0,5.1-1.9,5.1-4.3v-7.5h-15.9V428z" fill="#003087"/>
 <path d="M220.5,428c0,2.4,2.3,4.3,5.1,4.3h5.8c2.8,0,5.1-1.9,5.1-4.3v-7.5h-15.9L220.5,428L220.5,428z" fill="#003087"/>
 <path d="M241.4,409.4h-2.3v-7.6h-12.8c-3.5,0-6.5-2.4-7.3-5.7l0,0c-0.2-0.7,0.3-1.4,1-1.6c4.5-0.7,19.1-1.3,19.1-1.3v-0.4  c0-0.4-0.2-0.8-0.4-1.1l-7.6-8.8c-1.3-1.6-2.4-3.3-3.2-5.2l-8.3-15.5l0,0c-16.5-0.7-33-0.7-49.4,0l0,0l-8.3,15.5  c-0.8,1.9-1.8,3.7-3.2,5.2l-7.5,8.8c-0.3,0.3-0.4,0.7-0.4,1.1v0.4c0,0,14.6,0.6,19.1,1.3c0.7,0.1,1.2,0.8,1,1.6l0,0  c-0.8,3.4-3.8,5.7-7.3,5.7h-12.8v7.6h-2.3c-0.6,0-1.1,0.5-1.1,1.1c0,4.1,3.3,7.4,7.4,7.4h80.2c4.1,0,7.4-3.3,7.4-7.4  C242.5,409.9,242,409.4,241.4,409.4z M166.2,381.4c-0.9,0-1.7-0.8-1.7-1.7c0-0.2,0-0.4,0.1-0.6l6.8-13.4c0.2-0.7,0.9-1.1,1.6-1.1  H217c0.7,0,1.3,0.4,1.6,1.1l6.8,13.4c0.3,0.9-0.1,1.9-1,2.2c-0.2,0.1-0.4,0.1-0.6,0.1L166.2,381.4L166.2,381.4z M213.7,400  c0,5.2-4.2,9.4-9.4,9.4h-18.4c-5.2,0-9.4-4.2-9.4-9.4v-5c0-0.9,0.8-1.7,1.7-1.7h33.9c0.9,0,1.7,0.8,1.7,1.7L213.7,400L213.7,400z" fill="#003087"/>
</svg>