<svg xmlns="http://www.w3.org/2000/svg" version="1.1" viewBox="-5.0 -10.0 110.0 100.0">
 <path d="m60.117 81 14.691 3.9336 8.9805-33.52c0.12109-0.46484 0.046876-0.9375-0.17578-1.3203-0.22266-0.38672-0.59375-0.69141-1.0547-0.8125l-0.15234-0.039062-17.316-4.6406-0.15625-0.042968c-0.46094-0.125-0.93359-0.046875-1.3203 0.17578-0.37891 0.21875-0.67969 0.57812-0.80469 1.0273l-5.8633 21.879-3.125 11.668 6.3008 1.6875zm25.203-59.062-9.125-2.4453-0.95703-0.25781c-0.59375-0.16016-1.1992-0.0625-1.6914 0.22266-0.49219 0.28516-0.88281 0.76172-1.0391 1.3516l-5.9297 22.125 15.363 4.1172 5.9258-22.121c0.16016-0.59375 0.0625-1.1992-0.22266-1.6914-0.28516-0.49219-0.76172-0.88281-1.3516-1.0391zm2.2617-16.594c-0.46484-0.80859-1.2422-1.4453-2.2266-1.7148-0.99609-0.26562-1.9961-0.10547-2.8125 0.36719-0.8125 0.46875-1.4492 1.2422-1.7148 2.2109l-3.1133 11.625 7.1328 1.9141 3.1094-11.598c0.26172-0.98047 0.10156-1.9805-0.37109-2.8008zm-32.633 62.004-6.2227-23.234-10.07 2.6953 12.91 48.18c0.15234 0.51953 0.49219 0.9375 0.94531 1.2148 0.47656 0.27344 1.0273 0.36719 1.5703 0.23438l6.0508-1.6211c0.55859-0.14844 1.0078-0.51562 1.2773-0.98438 0.26953-0.46484 0.36328-1.0352 0.21094-1.5938l-2.5312-9.4492-6.7578-1.8125c-0.53125-0.14062-0.84766-0.69141-0.70703-1.2227l3.3242-12.41zm-12.035-24.781 3.6484-13.625c0.14062-0.53125 0.69141-0.84766 1.2227-0.70703s0.84766 0.69141 0.70703 1.2227l-3.6523 13.625 3.9727-1.0625 15.891-23.711c-4.2383-2.2969-8.9023-3.832-13.762-4.4727-5.0195-0.66016-10.254-0.36328-15.453 1.0273-5.1953 1.3906-9.8789 3.7539-13.898 6.8359-3.8906 2.9844-7.1602 6.6445-9.6797 10.754l25.617 12.59 3.9688-1.0625-9.9727-9.9727c-0.39063-0.39062-0.39063-1.0234 0-1.4141 0.39062-0.39062 1.0234-0.39062 1.4141 0l9.9727 9.9766z" fill="#003087"/>
</svg>