<svg xmlns="http://www.w3.org/2000/svg" viewBox="0 0 64 80" x="0px" y="0px">
 <title>_</title>
 <g data-name="Airplane Ticket Counter" fill="#003087">
  <circle cx="32" cy="11.25738" r="5.26477"/>
  <path d="M39.52,21.76739v3.75H24.48v-3.75a3.01307,3.01307,0,0,1,3.01-3.01h9.02A3.01307,3.01307,0,0,1,39.52,21.76739Z"/>
  <path d="M14.24,33.92737v23.11a.96456.96456,0,0,0,.97.97H48.79a.96456.96456,0,0,0,.97-.97v-23.11Zm26.06122,6.13812c-.2157.21777-1.88367,1.77954-3.93994,3.69842l1.68817,9.97931a.55186.55186,0,0,1-.15393.48236l-.66156.66162a.16563.16563,0,0,1-.26331-.0393l-4.1441-7.78937c-1.61981,1.50855-3.13391,2.91724-4.10242,3.818L28.53326,54.313a.55151.55151,0,0,1-.16082.35968l-.4419.44189a.1124.1124,0,0,1-.18756-.03882l-1.18433-3.46661a.32684.32684,0,0,0-.20379-.20355l-3.45911-1.17743a.11245.11245,0,0,1-.03894-.18762l.44208-.44208a.55212.55212,0,0,1,.35889-.16077l3.42517-.195c.89953-.9685,2.309-2.48535,3.81836-4.10754l-7.78547-4.142a.16562.16562,0,0,1-.0393-.2633l.66162-.66156a.55183.55183,0,0,1,.48236-.15394l9.973,1.68714c1.85181-1.98438,3.37793-3.61212,3.70471-3.93891.54682-.54675,2.49109-1.23437,3.06427-.66125S40.84534,39.516,40.30121,40.06549Z"/>
  <rect x="12" y="27.51739" width="40" height="4.40997" rx="0.81" ry="0.81"/>
 </g>
</svg>