<svg xmlns="http://www.w3.org/2000/svg" xmlns:xlink="http://www.w3.org/1999/xlink" version="1.1" x="0px" y="0px" viewBox="0 0 488.005 609.36625" style="enable-background:new 0 0 488.005 487.493;" xml:space="preserve">
 <g>
  <path d="M56.485,343.653V280.37c0-0.715,0.191-1.416,0.555-2.032l9.365-15.881v-39.764H29.765v39.764l9.365,15.881   c0.363,0.616,0.555,1.317,0.555,2.032v63.283H56.485z" fill="#003087"/>
  <path d="M75.283,351.653H20.887c-3.31,0-6.002,2.692-6.002,6.002v9.445c0,2.011,0.999,3.878,2.674,4.994l10.425,6.95   c0.997,0.664,1.644,1.741,1.762,2.934s-0.305,2.375-1.152,3.223c-8.84,8.841-13.708,20.595-13.708,33.096v39.437h66.4v-39.437   c0-12.501-4.868-24.255-13.708-33.096c-0.848-0.848-1.271-2.03-1.152-3.223s0.765-2.269,1.762-2.934l10.426-6.95   c1.674-1.116,2.673-2.983,2.673-4.994v-9.445C81.285,354.346,78.593,351.653,75.283,351.653z" fill="#003087"/>
  <path d="M14.885,476.421c0,6.105,4.968,11.072,11.073,11.072h44.254c6.105,0,11.073-4.967,11.073-11.072v-10.688h-66.4V476.421z" fill="#003087"/>
  <path d="M332.325,431.182c0,2.209-1.791,4-4,4h-49.601c-2.209,0-4-1.791-4-4v-25.761h-125.92v81.28h309.44v-81.28h-125.92V431.182z    M392.805,426.221c10.957,0,19.84,8.883,19.84,19.84c0,10.958-8.883,19.84-19.84,19.84s-19.84-8.883-19.84-19.84   C372.965,435.104,381.848,426.221,392.805,426.221z" fill="#003087"/>
  <rect x="466.245" y="405.421" width="21.76" height="81.28" fill="#003087"/>
  <rect x="119.045" y="405.421" width="21.76" height="81.28" fill="#003087"/>
  <path d="M472.165,253.581h15.84v-50.822L323.103,367.661h50.822v-15.84c0-2.209,1.791-4,4-4s4,1.791,4,4v15.84h26.72v-15.84   c0-2.209,1.791-4,4-4s4,1.791,4,4v15.84h26.721v-15.84c0-2.209,1.791-4,4-4s4,1.791,4,4v15.84h36.64v-36.64h-15.84   c-2.209,0-4-1.791-4-4s1.791-4,4-4h15.84v-26.721h-15.84c-2.209,0-4-1.791-4-4s1.791-4,4-4h15.84v-26.72h-15.84   c-2.209,0-4-1.791-4-4S469.956,253.581,472.165,253.581z" fill="#003087"/>
  <rect x="225.266" y="219.305" transform="matrix(0.7522 -0.6589 0.6589 0.7522 -94.1782 221.0212)" width="43.018" height="32.844" fill="#003087"/>
  <path d="M130.951,359.022l104.444-91.494l-21.633-24.713L109.32,334.308c-6.806,5.962-7.49,16.355-1.525,23.17   c2.89,3.301,6.89,5.279,11.264,5.57C123.445,363.345,127.657,361.909,130.951,359.022z" fill="#003087"/>
  <path d="M316.417,282.324c-0.145,2.188,0.572,4.303,2.018,5.953l8.804,10.057c1.444,1.65,3.444,2.64,5.631,2.785   c2.189,0.148,4.297-0.568,5.943-2.012l58.396-51.156c3.401-2.98,3.743-8.177,0.761-11.583l-8.804-10.057   c-1.444-1.65-3.444-2.639-5.632-2.785l-23.523-1.567c-10.269-0.684-18.072-9.597-17.396-19.869l0.736-11.167   c0.363-5.518-1.443-10.85-5.087-15.012l-16.8-19.19c-14.566-16.64-34.734-26.613-56.788-28.083   c-18.936-1.259-37.319,3.875-52.661,14.574c15.65,3.149,30.116,11.431,40.696,23.516l4.707,5.377   c5.161,5.896,4.567,14.89-1.323,20.051l-4.667,4.088l35.085,40.079l4.665-4.087c2.611-2.287,5.895-3.519,9.334-3.519   c0.32,0,0.643,0.011,0.965,0.032c3.786,0.253,7.248,1.965,9.748,4.82l3.939,4.5c2.501,2.856,3.739,6.515,3.489,10.301   L316.417,282.324z" fill="#003087"/>
  <polygon points="239.257,44.373 39.092,162.911 47.652,177.367 265.165,48.556  " fill="#003087"/>
  <polygon points="438.998,162.911 263.38,58.91 246.894,68.674 430.438,177.367  " fill="#003087"/>
  <path d="M446.683,186.987c9.868,5.844,22.65,2.568,28.496-7.299c2.83-4.78,3.63-10.378,2.252-15.76   c-1.379-5.382-4.771-9.905-9.551-12.736l-9.362-5.544l-21.197,35.795L446.683,186.987z" fill="#003087"/>
  <polygon points="235.181,37.49 243.967,12.762 26.455,141.572 35.016,156.028  " fill="#003087"/>
  <path d="M279.915,48.762c-0.315,0.423-0.713,0.779-1.167,1.048l-7.519,4.452l171.844,101.766l8.561-14.456L284.513,42.603   L279.915,48.762z" fill="#003087"/>
  <path d="M31.407,186.987l9.362-5.544l-21.197-35.795l-9.362,5.544c-4.78,2.831-8.173,7.354-9.551,12.736   c-1.379,5.382-0.579,10.979,2.252,15.76C8.757,189.557,21.539,192.831,31.407,186.987z" fill="#003087"/>
  <polygon points="231.195,11.028 225.305,7.54 171.752,0 195.686,32.057  " fill="#003087"/>
  <path d="M274.955,42.033l5.618-7.524c-3.753-2.716-7.998-6.731-11.408-12.499c-3.409-5.765-4.88-11.418-5.45-16.009l-9.321,1.312   L243.842,37.01L274.955,42.033z" fill="#003087"/>
  <path d="M285.358,28.099L306.338,0l-34.702,4.886c0.448,3.728,1.632,8.345,4.416,13.052   C278.834,22.644,282.305,25.906,285.358,28.099z" fill="#003087"/>
 </g>
</svg>