<svg xmlns="http://www.w3.org/2000/svg" xmlns:xlink="http://www.w3.org/1999/xlink" version="1.1" x="0px" y="0px" viewBox="0 0 96 100" style="enable-background:new 0 0 96 96;" xml:space="preserve">
 <path d="M59.089,71.505c5.011-3.584,7.993-9.367,7.993-15.53c0-10.522-8.56-19.083-19.083-19.083s-19.083,8.56-19.083,19.083  c0,6.163,2.983,11.946,7.993,15.53l2.059,3.843c-0.301,0.48-0.478,1.046-0.478,1.654v0.775c0,1.09,0.561,2.05,1.408,2.61  c-0.184,0.398-0.29,0.84-0.29,1.308v0.775c0,1.725,1.403,3.128,3.128,3.128h0.484c0.526,2.15,2.468,3.75,4.778,3.75  s4.252-1.6,4.778-3.75h0.484c1.725,0,3.128-1.403,3.128-3.128v-0.775c0-0.467-0.106-0.909-0.29-1.308  c0.847-0.56,1.408-1.52,1.408-2.61v-0.775c0-0.608-0.177-1.173-0.478-1.654L59.089,71.505z M55.17,77.777  c0,0.428-0.362,0.79-0.79,0.79h-1.116c-0.001,0-0.001,0-0.002,0v0H42.738v0c-0.001,0-0.001,0-0.002,0H41.62  c-0.428,0-0.79-0.362-0.79-0.79v-0.775c0-0.428,0.362-0.79,0.79-0.79h12.76c0.428,0,0.79,0.362,0.79,0.79V77.777z M38.476,69.748  c-4.522-3.133-7.221-8.282-7.221-13.773c0-9.233,7.512-16.745,16.745-16.745s16.745,7.512,16.745,16.745  c0,5.491-2.699,10.64-7.221,13.773c-0.152,0.105-0.277,0.246-0.364,0.409l-2.041,3.809c-0.237-0.058-0.483-0.092-0.738-0.092H41.62  c-0.255,0-0.501,0.034-0.738,0.092l-2.041-3.809C38.753,69.993,38.628,69.853,38.476,69.748z M48,87.01  c-1.003,0-1.871-0.576-2.299-1.413h4.597C49.871,86.434,49.003,87.01,48,87.01z M54.052,82.469c0,0.428-0.362,0.79-0.79,0.79H42.738  c-0.428,0-0.79-0.362-0.79-0.79v-0.775c0-0.428,0.361-0.789,0.789-0.79h10.526c0.428,0.001,0.789,0.362,0.789,0.79V82.469z   M41.389,66.691c0,2.285,2.16,4.145,4.816,4.145c0.616,0,1.227-0.103,1.795-0.298c0.568,0.195,1.179,0.298,1.795,0.298  c2.655,0,4.816-1.859,4.816-4.145c0-0.061-0.003-0.121-0.005-0.181c2.326-0.549,4.052-2.34,4.137-4.481  c2.227-1.096,3.764-3.388,3.764-6.032s-1.537-4.937-3.764-6.032c-0.084-2.141-1.811-3.932-4.137-4.481  c0.003-0.06,0.005-0.121,0.005-0.181c0-2.285-2.16-4.145-4.816-4.145c-0.616,0-1.227,0.103-1.795,0.297  c-0.568-0.195-1.179-0.297-1.795-0.297c-2.655,0-4.816,1.859-4.816,4.145c0,0.061,0.003,0.121,0.005,0.181  c-2.326,0.549-4.053,2.34-4.137,4.481c-2.227,1.096-3.763,3.388-3.763,6.032s1.537,4.937,3.763,6.032  c0.084,2.141,1.811,3.932,4.137,4.481C41.392,66.57,41.389,66.63,41.389,66.691z M39.788,62.7c0.141,0.009,0.283,0.015,0.426,0.015  c1.246,0,2.463-0.344,3.519-0.994c0.55-0.338,0.721-1.058,0.382-1.608c-0.338-0.55-1.058-0.721-1.608-0.382  c-0.688,0.423-1.481,0.647-2.293,0.647c-2.416,0-4.382-1.966-4.382-4.382s1.966-4.382,4.382-4.382c0.638,0,1.263,0.14,1.835,0.404  c0.336,1.323,1.534,2.305,2.96,2.305c1.686,0,3.057-1.371,3.057-3.057s-1.372-3.057-3.057-3.057c-1.092,0-2.049,0.577-2.59,1.441  c-0.705-0.245-1.449-0.373-2.205-0.373c-0.143,0-0.285,0.006-0.426,0.015c0.458-0.958,1.677-1.646,3.108-1.646  c0.25,0,0.498,0.021,0.74,0.063c0.635,0.111,1.241-0.315,1.352-0.951c0.111-0.636-0.315-1.241-0.951-1.352  c-0.101-0.018-0.204-0.033-0.307-0.046c-0.001-0.02-0.004-0.04-0.004-0.06c0-0.979,1.135-1.807,2.478-1.807  c0.462,0,0.913,0.096,1.305,0.277c0.013,0.006,0.026,0.01,0.039,0.016c0.02,0.008,0.039,0.017,0.059,0.024  c0.02,0.007,0.04,0.013,0.06,0.019c0.016,0.005,0.031,0.01,0.047,0.014c0.023,0.006,0.046,0.01,0.069,0.015  c0.014,0.003,0.028,0.005,0.041,0.008c0.024,0.004,0.048,0.006,0.072,0.008c0.014,0.001,0.027,0.003,0.041,0.003  c0.024,0.001,0.048,0.001,0.071,0.001c0.014,0,0.029,0,0.043-0.001c0.023-0.001,0.046-0.003,0.068-0.006  c0.015-0.002,0.03-0.003,0.046-0.005c0.022-0.003,0.045-0.008,0.067-0.012c0.015-0.003,0.03-0.006,0.046-0.01  c0.023-0.006,0.046-0.013,0.069-0.02c0.014-0.004,0.027-0.008,0.041-0.013c0.025-0.009,0.05-0.019,0.075-0.03  c0.009-0.004,0.018-0.007,0.027-0.011c0.392-0.181,0.843-0.277,1.305-0.277c1.343,0,2.478,0.827,2.478,1.807  c0,0.02-0.003,0.04-0.004,0.06c-0.103,0.013-0.205,0.028-0.307,0.046c-0.636,0.111-1.061,0.716-0.951,1.352  c0.111,0.636,0.715,1.062,1.352,0.951c0.241-0.042,0.49-0.063,0.739-0.063c1.432,0,2.65,0.688,3.108,1.646  c-0.141-0.009-0.283-0.015-0.426-0.015c-1.246,0-2.463,0.344-3.519,0.994c-0.55,0.338-0.721,1.058-0.382,1.608  c0.338,0.55,1.059,0.721,1.608,0.382c0.688-0.423,1.481-0.647,2.293-0.647c2.416,0,4.382,1.966,4.382,4.382  s-1.966,4.382-4.382,4.382c-0.638,0-1.263-0.14-1.835-0.404c-0.336-1.323-1.534-2.306-2.96-2.306c-1.686,0-3.057,1.372-3.057,3.057  s1.371,3.057,3.057,3.057c1.092,0,2.049-0.577,2.59-1.441c0.705,0.245,1.449,0.373,2.205,0.373c0.143,0,0.285-0.006,0.426-0.015  c-0.458,0.958-1.677,1.646-3.108,1.646c-0.249,0-0.498-0.021-0.739-0.063c-0.635-0.111-1.241,0.315-1.352,0.951  c-0.111,0.636,0.315,1.241,0.951,1.352c0.101,0.018,0.204,0.033,0.307,0.046c0.001,0.02,0.004,0.04,0.004,0.06  c0,0.979-1.135,1.807-2.478,1.807c-0.462,0-0.913-0.096-1.305-0.277c-0.013-0.006-0.027-0.011-0.04-0.016  c-0.019-0.008-0.038-0.016-0.058-0.023c-0.02-0.007-0.04-0.013-0.06-0.019c-0.016-0.005-0.032-0.01-0.048-0.014  c-0.022-0.006-0.044-0.01-0.067-0.014c-0.015-0.003-0.029-0.006-0.044-0.008c-0.023-0.003-0.045-0.006-0.068-0.008  c-0.015-0.001-0.031-0.003-0.046-0.004c-0.022-0.001-0.043-0.001-0.065-0.001c-0.017,0-0.033,0-0.05,0.001  c-0.02,0.001-0.041,0.003-0.061,0.005c-0.018,0.002-0.035,0.003-0.053,0.006c-0.02,0.003-0.04,0.007-0.059,0.011  c-0.018,0.004-0.035,0.007-0.053,0.011c-0.021,0.005-0.042,0.012-0.062,0.018c-0.015,0.005-0.031,0.009-0.046,0.015  c-0.024,0.009-0.048,0.019-0.072,0.029c-0.01,0.004-0.019,0.007-0.029,0.012c-0.392,0.181-0.843,0.277-1.305,0.277  c-1.343,0-2.478-0.827-2.478-1.807c0-0.02,0.003-0.04,0.004-0.06c0.103-0.013,0.205-0.028,0.307-0.046  c0.636-0.111,1.061-0.716,0.951-1.352c-0.111-0.636-0.716-1.062-1.352-0.951c-0.241,0.042-0.49,0.063-0.739,0.063  C41.464,64.347,40.246,63.658,39.788,62.7z M44.289,51.266c0-0.397,0.323-0.72,0.72-0.72c0.397,0,0.72,0.323,0.72,0.72  c0,0.397-0.323,0.72-0.72,0.72C44.612,51.986,44.289,51.663,44.289,51.266z M51.711,60.726c0,0.397-0.323,0.72-0.72,0.72  c-0.397,0-0.72-0.323-0.72-0.72c0-0.397,0.323-0.72,0.72-0.72C51.388,60.006,51.711,60.329,51.711,60.726z M87.501,74.704  c-2.631,0-4.837,1.858-5.374,4.331h-3.712l-1.425-5.32c-0.137-0.511-0.6-0.866-1.129-0.866h-1.997v-7.274h2.504  c0.537,2.473,2.742,4.331,5.373,4.331c3.032,0,5.499-2.467,5.499-5.499c0-3.032-2.467-5.499-5.499-5.499  c-2.631,0-4.836,1.858-5.373,4.331h-2.504V51.539h2.504c0.537,2.473,2.742,4.331,5.373,4.331c3.032,0,5.499-2.467,5.499-5.499  c0-3.032-2.467-5.499-5.499-5.499c-2.631,0-4.836,1.858-5.373,4.331h-2.504v-7.274h1.997c0.529,0,0.992-0.355,1.129-0.866  l1.425-5.32h3.712c0.537,2.473,2.743,4.33,5.374,4.33c3.032,0,5.499-2.467,5.499-5.499c0-3.032-2.467-5.499-5.499-5.499  c-2.631,0-4.837,1.858-5.374,4.331h-4.609c-0.529,0-0.992,0.355-1.129,0.866l-1.425,5.32h-1.1v-1.592  c0-3.569-2.903-6.472-6.472-6.472h-1.592V24.69l5.32-1.425c0.511-0.137,0.866-0.6,0.866-1.129v-4.609  c2.473-0.537,4.33-2.743,4.33-5.374c0-3.032-2.467-5.499-5.499-5.499c-3.032,0-5.499,2.467-5.499,5.499  c0,2.631,1.858,4.837,4.331,5.374v3.712l-5.32,1.425c-0.511,0.137-0.866,0.6-0.866,1.129v7.733h-7.274v-8.239  c2.473-0.537,4.331-2.742,4.331-5.373c0-3.032-2.467-5.499-5.499-5.499s-5.499,2.467-5.499,5.499c0,2.631,1.858,4.836,4.331,5.373  v8.239H42.151v-8.239c2.473-0.537,4.331-2.742,4.331-5.373c0-3.032-2.467-5.499-5.499-5.499c-3.032,0-5.499,2.467-5.499,5.499  c0,2.631,1.858,4.836,4.33,5.373v8.239h-7.274v-7.733c0-0.529-0.355-0.992-0.866-1.129l-5.32-1.425v-3.712  c2.473-0.537,4.331-2.743,4.331-5.374c0-3.032-2.467-5.499-5.499-5.499s-5.499,2.467-5.499,5.499c0,2.631,1.858,4.837,4.331,5.374  v4.609c0,0.529,0.355,0.992,0.866,1.129l5.32,1.425v6.836H28.61c-3.569,0-6.472,2.903-6.472,6.472v1.592h-1.1l-1.425-5.32  c-0.137-0.511-0.6-0.866-1.129-0.866h-4.609c-0.537-2.473-2.743-4.331-5.374-4.331C5.467,29.073,3,31.54,3,34.572  c0,3.032,2.467,5.499,5.499,5.499c2.631,0,4.837-1.858,5.374-4.33h3.712l1.425,5.32c0.137,0.511,0.6,0.866,1.129,0.866h1.997v7.274  h-2.504c-0.537-2.473-2.742-4.331-5.373-4.331c-3.032,0-5.499,2.467-5.499,5.499c0,3.032,2.467,5.499,5.499,5.499  c2.631,0,4.836-1.858,5.373-4.331h2.504v11.698h-2.504c-0.537-2.473-2.742-4.331-5.373-4.331c-3.032,0-5.499,2.467-5.499,5.499  c0,3.032,2.467,5.499,5.499,5.499c2.631,0,4.836-1.858,5.373-4.331h2.504v7.274H20.14c-0.529,0-0.992,0.355-1.129,0.866l-1.425,5.32  h-3.712c-0.537-2.473-2.743-4.331-5.374-4.331C5.467,74.704,3,77.171,3,80.204c0,3.032,2.467,5.499,5.499,5.499  c2.631,0,4.837-1.858,5.374-4.33h4.609c0.529,0,0.992-0.355,1.129-0.866l1.425-5.32h1.1v1.592c0,3.569,2.903,6.472,6.472,6.472  h8.246c0.645,0,1.169-0.523,1.169-1.169s-0.523-1.169-1.169-1.169H28.61c-2.28,0-4.134-1.855-4.134-4.134V37.998  c0-2.28,1.855-4.134,4.134-4.134H67.39c2.28,0,4.135,1.855,4.135,4.134v38.781c0,2.28-1.855,4.134-4.135,4.134h-8.246  c-0.645,0-1.169,0.523-1.169,1.169s0.523,1.169,1.169,1.169h8.246c3.569,0,6.472-2.903,6.472-6.472v-1.592h1.1l1.425,5.32  c0.137,0.511,0.6,0.866,1.129,0.866h4.609c0.537,2.473,2.743,4.33,5.374,4.33c3.032,0,5.499-2.467,5.499-5.499  C93,77.171,90.533,74.704,87.501,74.704z M81.74,61.244c1.743,0,3.162,1.418,3.162,3.162c0,1.743-1.418,3.162-3.162,3.162  s-3.162-1.418-3.162-3.162C78.578,62.663,79.996,61.244,81.74,61.244z M81.74,47.208c1.743,0,3.162,1.418,3.162,3.162  c0,1.743-1.418,3.162-3.162,3.162s-3.162-1.418-3.162-3.162C78.578,48.627,79.996,47.208,81.74,47.208z M87.501,31.411  c1.743,0,3.162,1.418,3.162,3.162c0,1.743-1.418,3.162-3.162,3.162c-1.743,0-3.162-1.418-3.162-3.162  C84.339,32.829,85.757,31.411,87.501,31.411z M67.654,12.152c0-1.743,1.418-3.162,3.162-3.162c1.743,0,3.162,1.418,3.162,3.162  c0,1.743-1.418,3.162-3.162,3.162C69.072,15.314,67.654,13.896,67.654,12.152z M51.856,17.913c0-1.743,1.418-3.162,3.162-3.162  s3.162,1.418,3.162,3.162c0,1.743-1.418,3.162-3.162,3.162S51.856,19.657,51.856,17.913z M37.82,17.913  c0-1.743,1.418-3.162,3.162-3.162c1.743,0,3.162,1.418,3.162,3.162c0,1.743-1.418,3.162-3.162,3.162  C39.239,21.075,37.82,19.657,37.82,17.913z M22.023,12.152c0-1.743,1.418-3.162,3.162-3.162s3.162,1.418,3.162,3.162  c0,1.743-1.418,3.162-3.162,3.162S22.023,13.896,22.023,12.152z M8.499,37.734c-1.743,0-3.162-1.418-3.162-3.162  c0-1.743,1.418-3.162,3.162-3.162c1.743,0,3.162,1.418,3.162,3.162C11.661,36.316,10.243,37.734,8.499,37.734z M14.26,53.532  c-1.743,0-3.162-1.418-3.162-3.162c0-1.743,1.418-3.162,3.162-3.162c1.743,0,3.162,1.418,3.162,3.162  C17.422,52.114,16.004,53.532,14.26,53.532z M14.26,67.568c-1.743,0-3.162-1.418-3.162-3.162c0-1.743,1.418-3.162,3.162-3.162  c1.743,0,3.162,1.418,3.162,3.162C17.422,66.149,16.004,67.568,14.26,67.568z M8.499,83.365c-1.743,0-3.162-1.418-3.162-3.162  c0-1.743,1.418-3.162,3.162-3.162c1.743,0,3.162,1.418,3.162,3.162C11.661,81.947,10.243,83.365,8.499,83.365z M87.501,83.365  c-1.743,0-3.162-1.418-3.162-3.162c0-1.743,1.418-3.162,3.162-3.162c1.743,0,3.162,1.418,3.162,3.162  C90.662,81.947,89.244,83.365,87.501,83.365z" fill="#003087"/>
</svg>