<svg xmlns="http://www.w3.org/2000/svg" version="1.1" viewBox="-5.0 -10.0 110.0 100.0">
 <path d="m76.672 64.496h-1.875v-2.6133h1.875zm0-6.5547h-1.875v2.6133h1.875zm-2.8203-16.086-6.5508-6.7734-0.070312-0.070312-11.035-11.41h-26.867l17.164 18.258h27.359zm6.0195 20.027h-1.875v2.6133h1.875zm0-3.9414h-1.875v2.6133h1.875zm-47.512-3.2109h-2.7969v3.75h2.7969zm0-5.0742h-2.7969v3.75h2.7969zm44.52-14.406h-7.5742l6.5508 6.7734c0.13672 0.12109 0.22266 0.29687 0.22266 0.49609 0 0.36719-0.29688 0.66406-0.66406 0.66406h-4.918v4.4336h18.586zm-48.641 19.48h-2.7969v3.75h2.7969zm0-5.0742h-2.7969v3.75h2.7969zm58.418 24.223c0 0.35156-0.28516 0.63672-0.63672 0.63672h-16.852v0.60547c0.35156 0 0.63672 0.28516 0.63672 0.63672 0 0.35156-0.28516 0.63672-0.63672 0.63672l-23.621-0.019531h-0.019531l-30.145-0.89453c-0.35156-0.011719-0.62891-0.30469-0.61719-0.65625 0.011719-0.34375 0.29297-0.61719 0.63672-0.61719v-31.695c0-0.36719-0.29688-0.66406-0.66406-0.66406h-3.8203l16.879-17.953 17.746 18.879v32.328h1.3281v-31.926h22.297v30.059h1.3281v-24.301h15.523v24.301c0.35156 0 0.63672 0.28516 0.63672 0.63672zm-13.188-8.7188c0 0.36719 0.29688 0.66406 0.66406 0.66406h6.4023c0.36719 0 0.66406-0.29688 0.66406-0.66406v-7.8828c0-0.36719-0.29688-0.66406-0.66406-0.66406h-6.4023c-0.36719 0-0.66406 0.29688-0.66406 0.66406zm-49.355-6.0156c0 0.36719 0.29688 0.66406 0.66406 0.66406h8.2461c0.36719 0 0.66406-0.29688 0.66406-0.66406v-10.152c0-0.36719-0.29688-0.66406-0.66406-0.66406h-8.2461c-0.36719 0-0.66406 0.29688-0.66406 0.66406zm38.629 15.977v-13.02c0-0.36719-0.29688-0.66406-0.66406-0.66406h-8.1172c-0.36719 0-0.66406 0.29688-0.66406 0.66406v13.012h1.3281v-12.352h2.7305v12.352h1.3281v-12.355h2.7305v12.355h1.3281z" fill="#003087"/>
</svg>