<svg xmlns="http://www.w3.org/2000/svg" xmlns:xlink="http://www.w3.org/1999/xlink" version="1.1" x="0px" y="0px" viewBox="0 0 64 80" style="enable-background:new 0 0 64 64;" xml:space="preserve">
 <g>
  <path d="M12,3c0-0.552-0.448-1-1-1H9C8.448,2,8,2.448,8,3v3.499c1.231-0.65,2.577-1.102,4-1.326V3z" fill="#003087"/>
  <path d="M22,26l1.5-3h-17L8,26h5v12h1v5h2v-5h1v-5h6.184c0.414,1.161,1.514,2,2.816,2c1.654,0,3-1.346,3-3s-1.346-3-3-3   c-1.302,0-2.402,0.839-2.816,2H17v-5H22z" fill="#003087"/>
  <path d="M38.723,5C38.894,4.705,39,4.366,39,4c0-1.105-0.895-2-2-2H27c-1.105,0-2,0.895-2,2c0,0.366,0.106,0.705,0.277,1H38.723z" fill="#003087"/>
  <rect x="25" y="13" width="10" height="2" fill="#003087"/>
  <circle cx="47" cy="43" r="4" fill="#003087"/>
  <path d="M50,57h-4H8c-2.415,0-4.435,1.721-4.899,4h51.799C54.435,58.721,52.415,57,50,57z" fill="#003087"/>
  <path d="M46,7H19v14h15c2.757,0,5,2.243,5,5v20c0,2.757-2.243,5-5,5h-6.414l-3.121-3.121C23.898,47.313,23.145,47,22.343,47H12   c-1.654,0-3,1.346-3,3v5h37c4.963,0,9-4.037,9-9V26v-8v-2C55,11.037,50.963,7,46,7z M37,17H23v-6h14V17z M47,49   c-3.309,0-6-2.691-6-6s2.691-6,6-6s6,2.691,6,6S50.309,49,47,49z M53,33H41V19h12V33z" fill="#003087"/>
  <rect x="15" y="7" width="2" height="14" fill="#003087"/>
  <path d="M61,19v-1c0-0.552-0.448-1-1-1h-2c-0.552,0-1,0.448-1,1v8c0,0.552,0.448,1,1,1h2c0.552,0,1-0.448,1-1v-1h-2v-2h2v-2h-2v-2   H61z" fill="#003087"/>
  <path d="M13,7.051C7.402,7.558,3,12.272,3,18v3h10V7.051z" fill="#003087"/>
  <rect x="43" y="21" width="8" height="10" fill="#003087"/>
 </g>
</svg>