<svg xmlns="http://www.w3.org/2000/svg" version="1.1" viewBox="-5.0 -10.0 110.0 100.0">
 <path d="m46.875 80.867v0.38281h-17.586c-0.60547-6.7969-1.8398-19.059-3.332-25.035-0.050781-0.20703-0.10938-0.41797-0.17578-0.62109-0.0625 0.20703-0.125 0.41797-0.17578 0.625-1.4922 5.9766-2.7266 18.234-3.332 25.031h-17.586v-32.031h1.4844c4.0977 0.22656 6.8984-0.66797 8.6602-2.5781 1.5039-1.6289 2.3086-4.1016 2.3516-7.5781h4.6758v6.25c0 1.7266 1.3984 3.125 3.125 3.125h1.5625c1.7266 0 3.125-1.3984 3.125-3.125v-6.25h4.6758c0.046875 3.4766 0.85156 5.9492 2.3516 7.5781 1.7617 1.9102 4.5586 2.8008 8.6523 2.5781l1.5234 0.011719v13.656c-1.0117 2.8086-1.5625 5.8359-1.5625 8.9922s0.55078 6.1836 1.5625 8.9922zm3.125-24.055v-24c0-2.5898-2.0977-4.6875-4.6875-4.6875h-36.477c-0.32031-0.55469-0.27344-1.25 0.13281-1.7578l12.5-15.625c0.12109-0.14844 0.26562-0.27734 0.43359-0.375l9.375-5.4688c0.54688-0.32031 1.2109-0.26563 1.6953 0.078124 0.011719 0.007813 0.023438 0.015626 0.03125 0.023438 2.3516 1.7656 5.2695 2.8125 8.4336 2.8125s6.0859-1.0469 8.4336-2.8086h0.003906c0.48828-0.36719 1.168-0.42578 1.7266-0.10156l9.375 5.4688c0.16406 0.097656 0.3125 0.22266 0.43359 0.375l12.5 15.625c0.42969 0.53906 0.45703 1.2969 0.0625 1.8633l-7.0312 10.156c-0.48438 0.69922-1.4414 0.88281-2.1523 0.41016l-2.2578-1.5039v9.7109c-5.1133 1.9219-9.4766 5.3789-12.531 9.8047zm-3.125-20.875h-17.203v-4.6875h15.641c0.86328 0 1.5625 0.69922 1.5625 1.5625zm-20.328-4.6875v14.062h-1.5625v-14.062zm-4.6875 0v4.6875h-17.172v-3.125c0-0.86328 0.69922-1.5625 1.5625-1.5625zm-17.172 7.8125h9.3789c-0.015625 2.4766-0.44531 4.2812-1.5312 5.4609-1.2539 1.3594-3.3086 1.7383-6.2266 1.5742-0.027344 0-0.058594-0.003906-0.089844-0.003906h-1.5312zm42.188 7.043-1.5508-0.011719c-0.03125 0-0.066407 0-0.097657 0.003906-2.918 0.16406-4.9766-0.21484-6.2266-1.5742-1.0859-1.1758-1.5156-2.9805-1.5312-5.4609h9.4102v7.043zm-42.188 38.27h17.316c-0.085937 1.0664-0.13281 1.6797-0.13281 1.6797-0.0625 0.81641-0.74219 1.4453-1.5586 1.4453h-14.062c-0.86328 0-1.5625-0.69922-1.5625-1.5625zm24.871 0h17.316v1.5625c0 0.86328-0.69922 1.5625-1.5625 1.5625h-14.062c-0.81641 0-1.4961-0.62891-1.5586-1.4453 0 0-0.046875-0.61719-0.13281-1.6797zm42.316-35.938c12.934 0 23.438 10.504 23.438 23.438s-10.504 23.438-23.438 23.438-23.438-10.504-23.438-23.438 10.504-23.438 23.438-23.438zm-11.457 31.25h22.918l1.668 1.25c0.69141 0.51562 1.6719 0.37891 2.1875-0.3125s0.37891-1.6719-0.3125-2.1875l-12.5-9.375c-0.26953-0.20312-0.59766-0.3125-0.9375-0.3125v-3.125c0-0.86328-0.69922-1.5625-1.5625-1.5625-0.86328 0-1.5625-0.69922-1.5625-1.5625s0.69922-1.5625 1.5625-1.5625c0.86328 0 1.5625 0.69922 1.5625 1.5625s0.69922 1.5625 1.5625 1.5625c0.86328 0 1.5625-0.69922 1.5625-1.5625 0-2.5859-2.1016-4.6875-4.6875-4.6875-2.5859 0-4.6875 2.1016-4.6875 4.6875 0 2.0391 1.3047 3.7773 3.125 4.4219v1.8281c-0.33984 0-0.66797 0.10938-0.9375 0.3125l-12.5 9.375c-0.69141 0.51562-0.82812 1.4961-0.3125 2.1875s1.4961 0.82812 2.1875 0.3125l1.668-1.25zm18.75-3.125h-14.582l6.25-4.6875h2.082z" fill="#003087" fill-rule="evenodd"/>
</svg>