<svg xmlns:dc="http://purl.org/dc/elements/1.1/" xmlns:cc="http://creativecommons.org/ns#" xmlns:rdf="http://www.w3.org/1999/02/22-rdf-syntax-ns#" xmlns:svg="http://www.w3.org/2000/svg" xmlns="http://www.w3.org/2000/svg" xmlns:sodipodi="http://sodipodi.sourceforge.net/DTD/sodipodi-0.dtd" xmlns:inkscape="http://www.inkscape.org/namespaces/inkscape" version="1.1" x="0px" y="0px" viewBox="0 0 100 100"><g transform="translate(0,-952.36218)"><path style="text-indent:0;text-transform:none;direction:ltr;block-progression:tb;baseline-shift:baseline;color:#000000;enable-background:accumulate;" d="m 86.67921,1002.3622 c 0,-21.51531 -17.4846,-39.00001 -39.00002,-39.00001 -21.5154,0 -39,17.4847 -39,39.00001 0,21.5153 17.4846,39 39,39 21.51542,0 39.00002,-17.4847 39.00002,-39 z m -4,0 c 0,19.3535 -15.6464,35 -35.00002,35 -19.3536,0 -35,-15.6465 -35,-35 0,-19.35351 15.6464,-35.00001 35,-35.00001 19.35362,0 35.00002,15.6465 35.00002,35.00001 z m -9,0 c 0,-0.4628 -0.2785,-1.0768 -0.5625,-1.375 l -16,-17.00001 c -0.747,-0.7723 -1.9729,-0.8463 -2.8438,-0.062 -0.7786,0.7007 -0.7825,2.0516 -0.062,2.8125 l 12.8438,13.62501 -43.37502,0 c -1.1046,0 -2,0.8954 -2,2 0,1.1046 0.8954,2 2,2 l 43.37502,0 -12.8438,13.625 c -0.7199,0.7608 -0.6843,2.1094 0.062,2.8438 0.7885,0.7752 2.1082,0.6904 2.8438,-0.094 l 16,-17 c 0.4701,-0.4611 0.5546,-0.9054 0.5625,-1.375 z" fill="#000000" fill-opacity="1" fill-rule="nonzero" stroke="none" marker="none" visibility="visible" display="inline" overflow="visible"/></g></svg>