<svg xmlns="http://www.w3.org/2000/svg" viewBox="0 0 512 400" x="0px" y="0px">
<title>delivery time</title>
<path d="M140.111,158.748H34.181a5.625,5.625,0,1,0,0,11.25h105.93a5.625,5.625,0,0,0,0-11.25Z"/>
<path d="M115.445,188.96a5.625,5.625,0,1,0-11.25,0V211.3H59.3a5.625,5.625,0,1,0,0,11.249H104.2V265.1H84.288a5.625,5.625,0,0,0,0,11.25h46.123a5.625,5.625,0,0,0,0-11.25H115.445Z"/>
<path d="M104.2,293.938V335.21a5.625,5.625,0,0,0,11.25,0V293.938a5.625,5.625,0,0,0-11.25,0Z"/>
<path d="M465.361,284.439,448.2,276.17a20.656,20.656,0,0,1-11.071-13.522l-.277-1.085a48.924,48.924,0,0,0-31.5-34.212l-53.288-18.415V183.545a24.825,24.825,0,0,0-24.795-24.8H316.707a16.592,16.592,0,0,1-13.954-7.307A80.556,80.556,0,1,0,238.134,276.3c42.811-1.366,77.765-37.349,77.92-80.214.009-2.7-.116-5.416-.372-8.079a5.625,5.625,0,1,0-11.2,1.076c.22,2.294.328,4.637.32,6.964-.133,36.876-30.2,67.834-67.028,69.009a69.3,69.3,0,1,1,55.59-107.417A27.816,27.816,0,0,0,316.706,170H327.27a13.563,13.563,0,0,1,13.546,13.547V346.373a6.547,6.547,0,0,1-6.54,6.54H249.923a5.625,5.625,0,0,0,0,11.25h84.353a17.809,17.809,0,0,0,17.79-17.79V220.839l49.613,17.146a37.7,37.7,0,0,1,24.274,26.363l.277,1.085a31.882,31.882,0,0,0,17.088,20.872l17.16,8.269a20.814,20.814,0,0,1,11.716,18.65v39.689H441.329a38.219,38.219,0,1,0,0,11.25h36.49a5.626,5.626,0,0,0,5.625-5.625V313.224A32.125,32.125,0,0,0,465.361,284.439ZM403.527,385.508a26.971,26.971,0,1,1,26.97-26.97A27,27,0,0,1,403.527,385.508Z"/>
<path d="M191.765,320.317a38.277,38.277,0,0,0-37.8,32.6h-85.6a5.625,5.625,0,1,0,0,11.25h85.6a38.22,38.22,0,1,0,37.8-43.846Zm0,65.191a26.971,26.971,0,1,1,26.97-26.97A27,27,0,0,1,191.765,385.508Z"/>
<path d="M409.152,285.6a5.625,5.625,0,0,0,5.349-7.366l-4.715-14.483a24.116,24.116,0,0,0-15.75-15.54l-20.07-6.238a5.625,5.625,0,0,0-7.294,5.372v32.63A5.625,5.625,0,0,0,372.3,285.6Zm-31.23-30.617,12.775,3.971a12.846,12.846,0,0,1,8.391,8.279l2.317,7.117H377.922Z"/>
<path d="M235.5,162.967a5.626,5.626,0,0,0-5.625,5.625v27.2a5.625,5.625,0,0,0,5.625,5.625h27.2a5.625,5.625,0,0,0,0-11.25H241.127V168.592A5.625,5.625,0,0,0,235.5,162.967Z"/>
<path d="M197.531,356.4a5.339,5.339,0,0,0-.52-.97,5.649,5.649,0,0,0-1.561-1.561,5.339,5.339,0,0,0-.97-.52,5.694,5.694,0,0,0-1.041-.324,5.856,5.856,0,0,0-2.208,0,6.194,6.194,0,0,0-1.055.324,6.463,6.463,0,0,0-.97.52,5.114,5.114,0,0,0-.844.7,4.625,4.625,0,0,0-.7.858,4.551,4.551,0,0,0-.52.97,5.543,5.543,0,0,0-.324,1.041,5.5,5.5,0,0,0,0,2.208,5.984,5.984,0,0,0,.324,1.054,5.316,5.316,0,0,0,.52.971,4.961,4.961,0,0,0,.7.844,5.766,5.766,0,0,0,.844.7,6.463,6.463,0,0,0,.97.52,7.635,7.635,0,0,0,1.055.324,5.8,5.8,0,0,0,1.1.1,5.864,5.864,0,0,0,1.111-.1,6.921,6.921,0,0,0,1.041-.324,5.339,5.339,0,0,0,.97-.52,5.211,5.211,0,0,0,.857-.7,5.659,5.659,0,0,0,.7-.844,6.425,6.425,0,0,0,.52-.971,7.442,7.442,0,0,0,.323-1.054,5.806,5.806,0,0,0,.1-1.1,5.961,5.961,0,0,0-.1-1.111A6.8,6.8,0,0,0,197.531,356.4Z"/>
<path d="M409.293,356.4a5.339,5.339,0,0,0-.52-.97,5.613,5.613,0,0,0-1.561-1.561,5.339,5.339,0,0,0-.97-.52,5.694,5.694,0,0,0-1.041-.324,5.856,5.856,0,0,0-2.208,0,6.156,6.156,0,0,0-1.054.324,6.425,6.425,0,0,0-.971.52,5.114,5.114,0,0,0-.844.7A5.695,5.695,0,0,0,398.9,356.4a5.617,5.617,0,0,0-.324,1.041,5.5,5.5,0,0,0,0,2.208,6.069,6.069,0,0,0,.324,1.054,5.441,5.441,0,0,0,.52.971,4.961,4.961,0,0,0,.7.844,5.766,5.766,0,0,0,.844.7,6.425,6.425,0,0,0,.971.52,7.581,7.581,0,0,0,1.054.324,6.267,6.267,0,0,0,2.208,0,6.921,6.921,0,0,0,1.041-.324,5.339,5.339,0,0,0,.97-.52,5.261,5.261,0,0,0,.858-.7,5.714,5.714,0,0,0,.7-.844,6.425,6.425,0,0,0,.52-.971,7.581,7.581,0,0,0,.324-1.054,5.8,5.8,0,0,0,.1-1.1,5.959,5.959,0,0,0-.1-1.111A6.921,6.921,0,0,0,409.293,356.4Z"/>
</svg>