<svg xmlns:dc="http://purl.org/dc/elements/1.1/" xmlns:cc="http://creativecommons.org/ns#" xmlns:rdf="http://www.w3.org/1999/02/22-rdf-syntax-ns#" xmlns:svg="http://www.w3.org/2000/svg" xmlns="http://www.w3.org/2000/svg" xmlns:sodipodi="http://sodipodi.sourceforge.net/DTD/sodipodi-0.dtd" xmlns:inkscape="http://www.inkscape.org/namespaces/inkscape" version="1.1" x="0px" y="0px" viewBox="0 0 100 100"><g transform="translate(0,-952.36218)"><path style="text-indent:0;text-transform:none;direction:ltr;block-progression:tb;baseline-shift:baseline;color:#000000;enable-background:accumulate;" d="m 28.21685,964.37016 c -5.9299,0 -11.8718,2.2491 -16.4063,6.7187 -9.0690002,8.9391 -9.0586002,23.42876 0,32.37494 l 36.75,36.3126 a 2.0002,2.0002 0 0 0 2.8125,0 c 12.2648,-12.0891 24.547701,-24.1607 36.812501,-36.2501 9.069,-8.93908 9.069,-23.46704 0,-32.40614 -9.069,-8.9392 -23.743401,-8.9394 -32.812501,0 l -5.3438,5.3124 -5.4062,-5.3437 c -4.5345,-4.4696 -10.4764,-6.7188 -16.4062,-6.7187 z m 0,3.9687 c 4.908,0 9.8235,1.8776 13.5937,5.5937 l 6.8125,6.7188 a 2.0002,2.0002 0 0 0 2.8125,0 l 6.75,-6.6875 c 7.5403,-7.4325 19.647301,-7.4323 27.187501,0 7.5402,7.4323 7.5402,19.28646 0,26.71864 -11.7979,11.6292 -23.608301,23.2463 -35.406201,34.8751 l -35.3438,-34.9375 c -7.5346002,-7.44108 -7.5402002,-19.25524 0,-26.68754 3.7701,-3.7161 8.6857,-5.5937 13.5938,-5.5937 z" fill="#000000" fill-opacity="1" stroke="none" marker="none" visibility="visible" display="inline" overflow="visible"/></g></svg>