<?xml version="1.0" encoding="iso-8859-1"?>
<!-- Uploaded to: SVG Repo, www.svgrepo.com, Generator: SVG Repo Mixer Tools -->
<svg fill="#000000" height="800px" width="800px" version="1.1" id="Layer_1" xmlns="http://www.w3.org/2000/svg" xmlns:xlink="http://www.w3.org/1999/xlink" 
	 viewBox="0 0 512 512" xml:space="preserve">
<g>
	<g>
		<g>
			<path d="M187.733,392.533c-9.421,0-17.067,7.646-17.067,17.067c0,9.421,7.646,17.067,17.067,17.067
				c9.421,0,17.067-7.646,17.067-17.067C204.8,400.179,197.154,392.533,187.733,392.533z"/>
			<path d="M409.6,392.533c-9.421,0-17.067,7.646-17.067,17.067c0,9.421,7.646,17.067,17.067,17.067
				c9.421,0,17.067-7.646,17.067-17.067C426.667,400.179,419.021,392.533,409.6,392.533z"/>
			<path d="M256,247.467H136.533c-4.719,0-8.533,3.823-8.533,8.533c0,4.71,3.814,8.533,8.533,8.533H256
				c4.719,0,8.533-3.823,8.533-8.533C264.533,251.29,260.719,247.467,256,247.467z"/>
			<path d="M503.893,315.733H386.304c-15.386,0-27.904-12.518-27.904-27.904v-40.363c0-4.71,3.814-8.533,8.533-8.533
				s8.533,3.823,8.533,8.533v40.363c0,5.973,4.855,10.837,10.837,10.837h81.152l-20.745-83.012
				c-2.85-11.409-13.073-19.388-24.841-19.388h-80.538v-25.6c0-9.412-7.654-17.067-17.067-17.067H187.298
				c0.256-2.816,0.435-5.649,0.435-8.533c0-51.755-42.112-93.867-93.867-93.867C42.112,51.2,0,93.312,0,145.067
				c0,48.879,37.564,89.105,85.333,93.431v60.169v102.4c0,9.412,7.654,17.067,17.067,17.067h34.901
				c4.087,24.175,25.114,42.667,50.432,42.667c25.318,0,46.345-18.492,50.432-42.667h121.003
				c4.087,24.175,25.114,42.667,50.432,42.667c25.318,0,46.345-18.492,50.432-42.667h34.901c9.412,0,17.067-7.654,17.067-17.067
				v-71.023C512,324.07,508.826,318.814,503.893,315.733z M93.867,153.6c-4.719,0-8.533-3.823-8.533-8.533v-51.2
				c0-4.71,3.814-8.533,8.533-8.533c4.719,0,8.533,3.823,8.533,8.533v42.667h17.067c4.719,0,8.533,3.823,8.533,8.533
				s-3.814,8.533-8.533,8.533H93.867z M187.733,443.733c-18.825,0-34.133-15.309-34.133-34.133
				c0-18.825,15.309-34.133,34.133-34.133s34.133,15.309,34.133,34.133C221.867,428.425,206.558,443.733,187.733,443.733z
				 M324.267,204.8v8.559c0,42.334-34.44,76.774-76.774,76.774H102.4v-51.593c0.171-0.017,0.333-0.051,0.503-0.068
				c0.845-0.077,1.673-0.222,2.509-0.324c1.929-0.239,3.849-0.521,5.751-0.879c1.178-0.222,2.338-0.469,3.499-0.734
				c1.527-0.35,3.029-0.751,4.531-1.169c1.237-0.35,2.475-0.683,3.686-1.075c1.527-0.503,3.021-1.084,4.523-1.655
				c2.125-0.819,4.207-1.715,6.255-2.68c1.118-0.521,2.236-1.033,3.328-1.604c1.314-0.683,2.603-1.417,3.891-2.167
				c1.05-0.606,2.091-1.246,3.123-1.894c1.212-0.768,2.415-1.544,3.584-2.364c1.203-0.845,2.364-1.741,3.524-2.637
				c1.289-0.998,2.56-1.997,3.789-3.055c1.109-0.947,2.193-1.903,3.251-2.901h114.918c4.719,0,8.533-3.823,8.533-8.533
				s-3.814-8.533-8.533-8.533H172.51c1.34-2.048,2.594-4.164,3.772-6.323c0.162-0.29,0.299-0.597,0.452-0.888
				c1.152-2.159,2.219-4.378,3.2-6.639c0.307-0.691,0.589-1.399,0.87-2.108c0.794-1.954,1.527-3.934,2.185-5.956
				c0.247-0.751,0.512-1.493,0.734-2.253c0.145-0.486,0.333-0.947,0.469-1.434h140.075V204.8z M366.933,349.867
				c-4.719,0-8.533-3.823-8.533-8.533s3.814-8.533,8.533-8.533H384c4.719,0,8.533,3.823,8.533,8.533s-3.814,8.533-8.533,8.533
				H366.933z M409.6,443.733c-18.825,0-34.133-15.309-34.133-34.133c0-18.825,15.309-34.133,34.133-34.133
				c18.825,0,34.133,15.309,34.133,34.133C443.733,428.425,428.425,443.733,409.6,443.733z"/>
		</g>
	</g>
</g>
</svg>