<svg xmlns="http://www.w3.org/2000/svg" version="1.1" viewBox="-5.0 -10.0 110.0 100.0">
 <path d="m90 49c-6.2305 0-12.41-2.0586-17.398-5.8008-0.35937-0.26953-0.83984-0.26953-1.1992 0-4.9922 3.7422-11.172 5.8008-17.402 5.8008-0.55078 0-1 0.44922-1 1v14.078c0 7.7188 4.1914 14.84 10.941 18.59l7.5781 4.2109c0.15234 0.082032 0.30859 0.12109 0.48047 0.12109s0.32812-0.039062 0.48828-0.12891l7.5781-4.2109c6.7422-3.7383 10.934-10.871 10.934-18.582v-14.078c0-0.55078-0.44922-1-1-1zm-1 15.078c0 6.9883-3.8008 13.441-9.9102 16.84l-7.0898 3.9414-7.0898-3.9414c-6.1094-3.3984-9.9102-9.8477-9.9102-16.84v-13.098c6.0703-0.19922 12.051-2.2188 17-5.7383 4.9492 3.5312 10.93 5.5391 17 5.7383zm-19 4.5117 9.2891-9.2891c0.39063-0.39062 1.0195-0.39062 1.4102 0s0.39062 1.0195 0 1.4102l-10 10c-0.1875 0.1875-0.4375 0.28906-0.69922 0.28906s-0.51172-0.10156-0.71094-0.28906l-6-6c-0.39062-0.39063-0.39062-1.0195 0-1.4102 0.39063-0.39062 1.0195-0.39062 1.4102 0zm21-51.602v23.012c0 0.55078-0.44922 1-1 1s-1-0.44922-1-1v-23.012c0-1.1016-0.89844-1.9883-1.9883-1.9883h-74.023c-1.0898 0-1.9883 0.89844-1.9883 1.9883v50.012c0 1.1016 0.89844 1.9883 1.9883 1.9883h31.012c0.55078 0 1 0.44922 1 1s-0.44922 1-1 1h-31.012c-2.1992 0.011719-3.9883-1.7773-3.9883-3.9766v-50.023c0-2.1992 1.7891-3.9883 3.9883-3.9883h74.012c2.2109 0 4 1.7891 4 3.9883zm-54 21v-11.977c0-1.6602-1.3516-3.0117-3.0117-3.0117h-11.977c-1.6602 0-3.0117 1.3516-3.0117 3.0117v11.98c0 1.6602 1.3516 3.0117 3.0117 3.0117h11.98c1.6562-0.003906 3.0078-1.3555 3.0078-3.0156zm-16 0v-11.977c0-0.55859 0.44922-1.0117 1.0117-1.0117h11.98c0.55859 0 1.0117 0.44922 1.0117 1.0117v11.98c0 0.55859-0.44922 1.0117-1.0117 1.0117l-11.98-0.003906c-0.5625 0-1.0117-0.44922-1.0117-1.0117zm7 15.012c0.55078 0 1 0.44922 1 1s-0.44922 1-1 1h-8c-0.55078 0-1-0.44922-1-1s0.44922-1 1-1zm7 1c0-0.55078 0.44922-1 1-1h8c0.55078 0 1 0.44922 1 1s-0.44922 1-1 1h-8c-0.55078 0-1-0.44922-1-1zm46-26c0 0.55078-0.44922 1-1 1h-24c-0.55078 0-1-0.44922-1-1s0.44922-1 1-1h24c0.55078 0 1 0.44922 1 1zm0 8c0 0.55078-0.44922 1-1 1h-14c-0.55078 0-1-0.44922-1-1s0.44922-1 1-1h14c0.55078 0 1 0.44922 1 1z"/>
</svg>