<svg width="55" height="54" viewBox="0 0 55 54" fill="none" xmlns="http://www.w3.org/2000/svg">
<path d="M26.7051 5.5C20.2434 5.50025 14.9923 10.8689 14.9922 17.5264C14.9922 22.3417 17.7425 26.4644 21.7031 28.4062C15.7443 30.03 10.8961 34.3807 8.53809 40.1094L8.34863 40.5693L8.80664 40.7607L10.0322 41.2744L10.4971 41.4688L10.6885 41.0039C13.3402 34.5528 19.5209 30.0664 26.751 30.0664C31.5506 30.0664 35.8733 32.101 39.0566 35.3252C41.771 38.1589 43.6282 41.9116 44.0479 46.0996H29.5195V48.4521L30.0186 48.4531L45.999 48.5L46.502 48.502L46.5 47.998C46.4562 38.6254 40.2515 30.6814 31.7627 28.3994C35.7125 26.4466 38.4189 22.2923 38.4189 17.5264C38.4188 10.9181 33.2149 5.5 26.7051 5.5ZM26.751 7.90039C29.3272 7.90041 31.6555 9.0032 33.3887 10.7402C35.1092 12.4647 36.1474 14.9034 36.1475 17.5732C36.1475 20.2331 35.0711 22.6317 33.3828 24.4131C31.6489 26.148 29.3253 27.2441 26.8047 27.2002H26.7959C25.9363 27.2002 25.1049 27.0749 24.3135 26.8467H25.9336C27.0397 26.8467 27.8866 25.9565 27.8867 24.8535V24.7129C27.8865 23.61 27.0397 22.7197 25.9336 22.7197H23.6641C23.0654 22.7197 22.5116 23.0079 22.1582 23.4541C21.11 23.2276 20.1645 22.892 19.2539 22.4443C18.9266 22.2761 18.6349 22.1221 18.3779 21.9463C17.7236 20.6423 17.3535 19.1298 17.3535 17.5732C17.3535 14.9118 18.4321 12.5122 20.1221 10.7305C21.7995 8.96202 24.1661 7.90039 26.751 7.90039ZM21.583 25.5488C21.6774 25.5705 21.7723 25.5923 21.8682 25.6123C21.893 25.6736 21.9223 25.7327 21.9531 25.791C21.8281 25.7129 21.7045 25.6325 21.583 25.5488Z" fill="black" stroke="black"/>
</svg>
