<svg width="55" height="54" viewBox="0 0 55 54" fill="none" xmlns="http://www.w3.org/2000/svg">
<path d="M25.4148 38.6783C25.8987 38.6785 26.2936 39.0743 26.2937 39.5582C26.2937 40.0421 25.8987 40.4379 25.4148 40.4381H17.3894C16.9053 40.4381 16.5095 40.0423 16.5095 39.5582C16.5095 39.0741 16.9053 38.6783 17.3894 38.6783H25.4148Z" fill="black" stroke="black" stroke-width="0.3"/>
<path d="M24.6852 35.3952C24.9905 35.3953 25.3009 35.4972 25.5367 35.7068C25.7755 35.919 25.9293 36.2349 25.9293 36.6404C25.9292 37.0456 25.7754 37.3608 25.5367 37.573C25.3009 37.7826 24.9905 37.8844 24.6852 37.8845C24.3797 37.8845 24.0686 37.7827 23.8326 37.573C23.594 37.3608 23.4402 37.0456 23.4401 36.6404C23.4401 36.2349 23.5939 35.919 23.8326 35.7068C24.0686 35.497 24.3797 35.3952 24.6852 35.3952Z" fill="black" stroke="black" stroke-width="0.3"/>
<path d="M21.4024 35.3952C21.7078 35.3953 22.0181 35.4972 22.254 35.7068C22.4928 35.919 22.6466 36.2349 22.6466 36.6404C22.6465 37.0456 22.4927 37.3608 22.254 37.573C22.0181 37.7826 21.7078 37.8844 21.4024 37.8845C21.0969 37.8845 20.7859 37.7827 20.5499 37.573C20.3112 37.3608 20.1574 37.0456 20.1573 36.6404C20.1573 36.2349 20.3111 35.919 20.5499 35.7068C20.7859 35.497 21.0969 35.3952 21.4024 35.3952Z" fill="black" stroke="black" stroke-width="0.3"/>
<path d="M18.1197 35.3952C18.425 35.3953 18.7354 35.4972 18.9713 35.7068C19.21 35.919 19.3638 36.2349 19.3638 36.6404C19.3637 37.0456 19.2099 37.3608 18.9713 37.573C18.7354 37.7826 18.425 37.8844 18.1197 37.8845C17.8142 37.8845 17.5032 37.7827 17.2672 37.573C17.0285 37.3608 16.8747 37.0456 16.8746 36.6404C16.8746 36.2349 17.0284 35.919 17.2672 35.7068C17.5032 35.497 17.8142 35.3952 18.1197 35.3952Z" fill="black" stroke="black" stroke-width="0.3"/>
<path d="M42.5508 22.6216C42.6702 22.6216 42.7692 22.65 42.8574 22.6821L42.8564 22.6831C42.8748 22.6892 42.9069 22.698 42.9316 22.7104L42.9307 22.7114C43.0231 22.7539 43.1033 22.8059 43.1748 22.8774C43.1846 22.8872 43.1915 22.8966 43.1953 22.9018C43.199 22.9069 43.2025 22.9121 43.2041 22.9145C43.2049 22.9158 43.2057 22.917 43.2061 22.9174L43.208 22.9194C43.2208 22.9353 43.2317 22.9476 43.251 22.9702C43.2669 22.9889 43.2874 23.0142 43.3047 23.0424L46.9531 28.8784H46.9521C47.1286 29.1456 47.1358 29.4893 46.9785 29.769C46.8211 30.0487 46.5235 30.2239 46.2061 30.2241H43.4375V41.5971H44.7461C45.2301 41.5971 45.6258 41.9921 45.626 42.476V44.5151H46.2061C46.6898 44.5153 47.0847 44.9103 47.085 45.394V47.5825C47.085 48.0664 46.6899 48.4621 46.2061 48.4624H9.72949C9.24542 48.4624 8.84961 48.0666 8.84961 47.5825V45.394C8.84983 44.9101 9.24556 44.5151 9.72949 44.5151H10.3086V42.476C10.3087 41.9944 10.7008 41.6009 11.1816 41.5971H13.2197V30.2241H10.4521C10.1264 30.2241 9.83575 30.0481 9.67871 29.769L9.67773 29.7671C9.52755 29.493 9.53805 29.1514 9.7041 28.8803V28.8784L13.3516 23.0424L13.3545 23.0385C13.3874 22.9892 13.4324 22.9403 13.4492 22.9194L13.4512 22.9174L13.4531 22.9145C13.4547 22.9121 13.4582 22.907 13.4619 22.9018C13.4657 22.8966 13.4727 22.8872 13.4824 22.8774C13.5575 22.8024 13.647 22.7497 13.7256 22.7104L13.7354 22.7055L13.7422 22.7036C13.7429 22.7032 13.7437 22.7024 13.7451 22.7016C13.7472 22.7006 13.7511 22.6987 13.7549 22.6967C13.765 22.6917 13.7836 22.6856 13.8076 22.6801C13.8953 22.6489 13.9981 22.6216 14.1064 22.6216H42.5508ZM10.6094 46.7036H45.3262V46.2739H10.6094V46.7036ZM12.0684 44.5151H43.8672V43.3559H12.0684V44.5151ZM33.2246 41.5971H41.6787V30.2241H35.2627C34.9371 30.224 34.6293 30.0401 34.4795 29.7407L33.2246 27.2358V41.5971ZM28.6709 29.8725V29.8735C28.5044 30.0926 28.2415 30.225 27.9678 30.2251H14.9863V41.5971H31.4648V26.1479L28.6709 29.8725ZM35.8086 28.4653H44.6221L42.0742 24.3882H33.7695L35.8086 28.4653ZM12.043 28.4653H27.5283L30.5859 24.3882H14.5908L12.043 28.4653Z" fill="black" stroke="black" stroke-width="0.3"/>
<path d="M27.9675 5.84961C32.0699 5.84961 35.4126 9.19254 35.4128 13.2949C35.4128 17.3974 32.07 20.7402 27.9675 20.7402C23.8651 20.7401 20.5222 17.3973 20.5222 13.2949C20.5223 9.19264 23.8652 5.84977 27.9675 5.84961ZM27.9675 7.60938C24.8334 7.60954 22.2821 10.1608 22.2819 13.2949C22.2819 16.4292 24.8333 18.9813 27.9675 18.9814C31.1018 18.9814 33.654 16.4293 33.654 13.2949C33.6539 10.1607 31.1017 7.60938 27.9675 7.60938Z" fill="black" stroke="black" stroke-width="0.3"/>
<path d="M30.2694 10.4831C30.597 10.1556 31.1168 10.1411 31.4618 10.4392H31.4803L31.5243 10.4831C31.8673 10.8261 31.8672 11.3803 31.5243 11.7234L27.8768 15.3718L27.8739 15.3737C27.7011 15.5379 27.4822 15.6267 27.2528 15.6267C27.0269 15.6267 26.8051 15.548 26.6288 15.3718L25.1698 13.9128C24.8267 13.5697 24.8268 13.0147 25.1698 12.6716C25.5128 12.3286 26.0669 12.3287 26.41 12.6716L27.245 13.5066L30.2694 10.4831Z" fill="black" stroke="black" stroke-width="0.3"/>
<path d="M40.3696 12.4153C40.8536 12.4153 41.2494 12.8111 41.2495 13.2952C41.2495 13.7793 40.8536 14.1751 40.3696 14.1751H38.9106C38.4265 14.1751 38.0307 13.7793 38.0307 13.2952C38.0307 12.8111 38.4265 12.4153 38.9106 12.4153H40.3696Z" fill="black" stroke="black" stroke-width="0.3"/>
<path d="M38.3714 9.58572C38.7164 9.28767 39.2362 9.30217 39.5638 9.62967C39.9069 9.97271 39.9068 10.5268 39.5638 10.8699L38.7835 11.6512L38.7806 11.6541L38.7796 11.6531C38.6068 11.8171 38.3888 11.906 38.1595 11.906C37.9336 11.906 37.7119 11.8274 37.5355 11.6512C37.1924 11.3081 37.1924 10.753 37.5355 10.4099L38.3597 9.58572H38.3714Z" fill="black" stroke="black" stroke-width="0.3"/>
<path d="M37.5428 14.9405C37.8858 14.5975 38.4399 14.5976 38.783 14.9405L39.5642 15.7208C39.9073 16.0639 39.9073 16.6189 39.5642 16.962L39.5613 16.9649C39.3886 17.1289 39.1695 17.2168 38.9402 17.2169C38.7143 17.2169 38.4926 17.1382 38.3162 16.962L37.2791 15.9249H37.365C37.2171 15.6013 37.2761 15.2072 37.5428 14.9405Z" fill="black" stroke="black" stroke-width="0.3"/>
<path d="M16.9955 12.4153C17.4796 12.4153 17.8754 12.8111 17.8754 13.2952C17.8754 13.7793 17.4796 14.1751 16.9955 14.1751H15.5365C15.0524 14.1751 14.6566 13.7793 14.6566 13.2952C14.6566 12.8111 15.0524 12.4153 15.5365 12.4153H16.9955Z" fill="black" stroke="black" stroke-width="0.3"/>
<path d="M16.3571 9.62924C16.7001 9.2862 17.2542 9.2863 17.5973 9.62924L18.3346 10.3656H18.3415L18.3854 10.4095C18.7285 10.7526 18.7285 11.3076 18.3854 11.6507L18.3825 11.6537C18.2097 11.8176 17.9906 11.9056 17.7614 11.9056C17.5355 11.9056 17.3137 11.8271 17.1374 11.6507L16.3571 10.8695C16.0141 10.5264 16.0141 9.97227 16.3571 9.62924Z" fill="black" stroke="black" stroke-width="0.3"/>
<path d="M17.1861 14.8961C17.5311 14.5981 18.0509 14.6126 18.3785 14.9401C18.7216 15.2831 18.7215 15.8372 18.3785 16.1803L17.5982 16.9616L17.5953 16.9645L17.5943 16.9635C17.4215 17.1275 17.2034 17.2164 16.9742 17.2165C16.7483 17.2165 16.5265 17.1379 16.3502 16.9616C16.0071 16.6185 16.0071 16.0635 16.3502 15.7204L17.1744 14.8961H17.1861Z" fill="black" stroke="black" stroke-width="0.3"/>
</svg>
