<svg xmlns="http://www.w3.org/2000/svg" version="1.1" viewBox="-5.0 -10.0 110.0 100.0">
 <path d="m44.531 75h-17.188c-0.85938 0-1.5625 0.70312-1.5625 1.5625s0.70312 1.5625 1.5625 1.5625h17.188c0.85938 0 1.5625-0.70312 1.5625-1.5625s-0.70312-1.5625-1.5625-1.5625z"/>
 <path d="m45.312 70.312c0 3.125-4.6875 3.125-4.6875 0s4.6875-3.125 4.6875 0"/>
 <path d="m38.281 70.312c0 3.125-4.6875 3.125-4.6875 0s4.6875-3.125 4.6875 0"/>
 <path d="m31.25 70.312c0 3.125-4.6875 3.125-4.6875 0s4.6875-3.125 4.6875 0"/>
 <path d="m14.062 81.25c-0.85938 0-1.5625 0.70312-1.5625 1.5625v4.6875h-1.5625c-0.85938 0-1.5625 0.70312-1.5625 1.5625v4.6875c0 0.85938 0.70312 1.5625 1.5625 1.5625h78.125c0.85938 0 1.5625-0.70312 1.5625-1.5625v-4.6875c0-0.85938-0.70312-1.5625-1.5625-1.5625h-1.5625v-4.6875c0-0.85938-0.70312-1.5625-1.5625-1.5625h-3.125v-25h6.25c0.5625 0 1.0938-0.3125 1.375-0.8125s0.26562-1.1094-0.046875-1.5781l-7.8125-12.5c-0.046875-0.078125-0.125-0.15625-0.1875-0.23438-0.015625-0.015625-0.03125-0.046875-0.046875-0.0625-0.125-0.125-0.26562-0.21875-0.4375-0.29688-0.03125-0.015625-0.078125-0.03125-0.125-0.046875-0.17188-0.0625-0.34375-0.10938-0.54688-0.10938h-60.922c-0.1875 0-0.375 0.046875-0.54688 0.10938-0.046875 0-0.078125 0.03125-0.125 0.046875-0.15625 0.078125-0.3125 0.17188-0.4375 0.29688-0.015625 0.015625-0.03125 0.046875-0.046875 0.0625-0.0625 0.078125-0.125 0.14062-0.1875 0.23438l-7.8125 12.5c-0.29688 0.48438-0.3125 1.0938-0.046875 1.5781 0.28125 0.5 0.79688 0.8125 1.375 0.8125h6.25v25h-4.6875zm73.438 10.938h-75v-1.5625h75zm-3.125-4.6875h-68.75v-3.125h68.75zm-4.6875-6.25h-18.75v-32.438l3.2969 6.5781c0.26562 0.53125 0.8125 0.85938 1.3906 0.85938h14.062zm0.70312-37.5 5.8594 9.375h-19.656l-4.6875-9.375zm-59.219 0h35.078l-7.0312 9.375h-33.906zm0.70312 12.5h28.125c0.48438 0 0.95312-0.23438 1.25-0.625l6.5625-8.75v34.375h-35.938z"/>
 <path d="m65.625 20.312c0-8.6094-7.0156-15.625-15.625-15.625s-15.625 7.0156-15.625 15.625 7.0156 15.625 15.625 15.625 15.625-7.0156 15.625-15.625zm-28.125 0c0-6.8906 5.6094-12.5 12.5-12.5s12.5 5.6094 12.5 12.5-5.6094 12.5-12.5 12.5-12.5-5.6094-12.5-12.5z"/>
 <path d="m57.359 14.516c-0.60938-0.60938-1.5938-0.60938-2.2031 0l-6.7031 6.7031-2.0156-2.0156c-0.60938-0.60938-1.5938-0.60938-2.2031 0s-0.60938 1.5938 0 2.2031l3.125 3.125c0.3125 0.3125 0.70312 0.45312 1.1094 0.45312s0.79688-0.15625 1.1094-0.45312l7.8125-7.8125c0.60938-0.60938 0.60938-1.5938 0-2.2031z"/>
 <path d="m71.875 20.312c0 0.85938 0.70312 1.5625 1.5625 1.5625h3.125c0.85938 0 1.5625-0.70312 1.5625-1.5625s-0.70312-1.5625-1.5625-1.5625h-3.125c-0.85938 0-1.5625 0.70312-1.5625 1.5625z"/>
 <path d="m72.391 12.688-1.6719 1.6719c-0.60938 0.60938-0.60938 1.5938 0 2.2031 0.3125 0.3125 0.70312 0.45312 1.1094 0.45312s0.79688-0.15625 1.1094-0.45312l1.6719-1.6719c0.60938-0.60938 0.60938-1.5938 0-2.2031s-1.5938-0.60938-2.2031 0z"/>
 <path d="m70.719 26.266 1.6719 1.6719c0.3125 0.3125 0.70312 0.45312 1.1094 0.45312s0.79688-0.15625 1.1094-0.45312c0.60938-0.60938 0.60938-1.5938 0-2.2031l-1.6719-1.6719c-0.60938-0.60938-1.5938-0.60938-2.2031 0s-0.60938 1.5938 0 2.2031z"/>
 <path d="m21.812 20.312c0 0.85938 0.70312 1.5625 1.5625 1.5625h3.125c0.85938 0 1.5625-0.70312 1.5625-1.5625s-0.70312-1.5625-1.5625-1.5625h-3.125c-0.85938 0-1.5625 0.70312-1.5625 1.5625z"/>
 <path d="m29.234 14.359-1.6719-1.6719c-0.60938-0.60938-1.5938-0.60938-2.2031 0s-0.60938 1.5938 0 2.2031l1.6719 1.6719c0.3125 0.3125 0.70312 0.45312 1.1094 0.45312s0.79688-0.15625 1.1094-0.45312c0.60938-0.60938 0.60938-1.5938 0-2.2031z"/>
 <path d="m27.016 24.062-1.6719 1.6719c-0.60938 0.60938-0.60938 1.5938 0 2.2031 0.3125 0.3125 0.70312 0.45312 1.1094 0.45312s0.79688-0.15625 1.1094-0.45312l1.6719-1.6719c0.60938-0.60938 0.60938-1.5938 0-2.2031s-1.5938-0.60938-2.2031 0z"/>
</svg>