<svg xmlns="http://www.w3.org/2000/svg" xmlns:xlink="http://www.w3.org/1999/xlink" version="1.1" x="0px" y="0px" viewBox="0 0 100 100" enable-background="new 0 0 100 100" xml:space="preserve">
<path fill="#000000" d="M57.3,53.1c10-3.2,17.3-12.5,17.3-23.6c0-13.7-11.1-24.7-24.7-24.7c-13.7,0-24.7,11.1-24.7,24.7  c0,11,7.2,20.4,17.2,23.6C22.5,56.6,7.5,74,7.4,94.8l35.2-0.1v-2.9H10.5c0.7-9.7,5-18.4,11.4-24.9c7.2-7.1,17-11.6,27.9-11.6  c16.4,0,30.4,9.9,36.4,24.1l2.7-1.1C83.4,65.3,71.6,55.7,57.3,53.1z M34.4,45c-3.9-4-6.4-9.4-6.4-15.4c0-6,2.4-11.5,6.4-15.4  c4-3.9,9.4-6.4,15.4-6.4c6,0,11.5,2.4,15.4,6.4c3.9,4,6.4,9.4,6.4,15.4c0,3.6-0.9,7.1-2.5,10.1c-0.7,0.5-1.5,0.9-2.3,1.3  c-2.3,1.1-4.7,1.9-7.4,2.4c-0.5-1-1.6-1.7-2.8-1.7h-5c-1.8,0-3.2,1.4-3.2,3.2v0.3c0,1.8,1.4,3.2,3.2,3.2h5c1.5,0,2.8-1.1,3.1-2.5  c2.2-0.4,4.2-1,6.2-1.8c-0.3,0.3-0.5,0.6-0.8,0.8c-4,3.9-9.4,6.4-15.4,6.4C43.8,51.4,38.4,48.9,34.4,45z"/>
</svg>