<svg xmlns="http://www.w3.org/2000/svg" version="1.1" viewBox="-5.0 -10.0 110.0 135.0">
 <path d="m49.621 4.2109c-0.93359-0.050782-1.8594 0.1875-2.6523 0.68359l-41.117 25.949c-2.1172 1.3594-2.7773 4.1484-1.4922 6.3125 0.61328 1.0234 1.6133 1.7578 2.7734 2.0352 1.1602 0.27734 2.3828 0.074219 3.3945-0.55859l39.566-24.949 39.379 24.863c1.0195 0.63281 2.25 0.82812 3.418 0.54688 1.168-0.27734 2.1719-1.0156 2.793-2.043 1.2969-2.1602 0.63281-4.9609-1.4922-6.3125l-41.172-25.938c-1.0039-0.65234-2.2305-0.86719-3.3984-0.58984zm-28.77 36.535h17.402v10.211c0.011719 0.78125 0.40625 1.5039 1.0508 1.9375l9.4727 6.4414c0.80469 0.62109 1.918 0.64844 2.75 0.0625l9.3047-6.4727c0.66406-0.43359 1.0586-1.1758 1.0508-1.9688v-10.211h17.242v20.477c-0.87891-0.11719-1.7656-0.17188-2.6523-0.17188-4.8984 0.015625-9.6055 1.8945-13.176 5.25-3.5664 3.3555-5.7266 7.9453-6.0391 12.832-0.3125 4.8906 1.2422 9.7148 4.3516 13.5h-40.758zm22.105 0h14.211v8.9883l-7.043 4.8828-7.1914-4.8828zm33.516 24.055c4.125 0 8.0781 1.6367 10.996 4.5547 2.9141 2.9141 4.5508 6.8672 4.5508 10.992s-1.6367 8.0781-4.5508 10.992c-2.918 2.918-6.8711 4.5547-10.996 4.5547-4.1211 0-8.0781-1.6367-10.992-4.5547-2.918-2.9141-4.5547-6.8672-4.5547-10.992 0.007813-4.1211 1.6445-8.0742 4.5586-10.988 2.918-2.9141 6.8672-4.5547 10.988-4.5586zm-8.832 16.77c-0.40234-0.46875-0.60547-1.0781-0.55859-1.6953 0.046875-0.61328 0.33594-1.1875 0.80078-1.5898 0.97266-0.85156 2.4492-0.75781 3.3086 0.21094l3.4648 4 7.043-9.4727-0.003907-0.003907c0.37891-0.48438 0.93359-0.79688 1.543-0.87109 0.61328-0.074219 1.2266 0.10156 1.7109 0.48437 0.49609 0.37109 0.82812 0.92578 0.92188 1.5391 0.089844 0.61719-0.066406 1.2461-0.44141 1.7422l-8.7148 11.656c-0.11719 0.14844-0.24609 0.28906-0.38672 0.41797-0.47266 0.41016-1.0859 0.61328-1.7109 0.56641-0.62109-0.042969-1.1992-0.33594-1.6055-0.80859z" fill-rule="evenodd"/>
</svg>