<svg xmlns="http://www.w3.org/2000/svg" version="1.1" viewBox="-5.0 -10.0 110.0 100.0">
 <path d="m22.043 50.977c-0.097657-0.48437-0.14453-0.97266-0.14453-1.4609-0.003907-1.9844 0.78125-3.8867 2.1836-5.2891l11.961-11.961c-7.8242-5.9805-11.832-2.168-18.336 4.0156v0.003906c-3.2344 3.1914-6.6836 6.1523-10.332 8.8594 2.3672 1.7695 4.957 3.2305 7.6992 4.3438 2.2188 0.89453 4.5781 1.3945 6.9688 1.4883zm45.578 12.871-9.4492 9.4531-2.5117 2.5117c-1.4023 1.3984-3.3047 2.1797-5.2852 2.1758-0.49219 0-0.98047-0.046875-1.4609-0.14062 0.089844 2.3906 0.59375 4.7461 1.4844 6.9688 1.1133 2.7422 2.5742 5.3281 4.3438 7.6992 2.707-3.6484 5.668-7.1016 8.8594-10.332 6.1836-6.5 10-10.512 4.0156-18.336zm-3.8477-54.613 26.883 26.879c3.1133-5.0234 3.7812-11.191 1.8164-16.77-1.9688-5.5781-6.3516-9.9609-11.93-11.926-5.5781-1.9648-11.742-1.2969-16.77 1.8164zm-8.5859 63.066-1.5156 1.5156c-0.875 0.875-2.0625 1.3672-3.3008 1.3633-1.2383 0.003906-2.4258-0.48438-3.3008-1.3594l-21-21.008c-1.8125-1.8281-1.8125-4.7695 0-6.5938l1.5156-1.5195zm-25.613-29.59 30.715-30.711c0.38672-0.38672 0.78906-0.75391 1.1992-1.1016 0.046875 0.066406 0.097657 0.12891 0.15625 0.18359l27.164 27.164c0.058594 0.058594 0.11719 0.10938 0.18359 0.15625-0.34766 0.41016-0.71484 0.80859-1.1016 1.1992l-30.715 30.711zm39.156-5.0547c0 3.1016-2.1953 5.7695-5.2344 6.3711-3.043 0.60547-6.0859-1.0234-7.2734-3.8906-1.1836-2.8672-0.17969-6.168 2.3984-7.8906 2.582-1.7227 6.0195-1.3789 8.207 0.81641 1.2227 1.2148 1.9062 2.8711 1.9023 4.5938zm0.085937-6.5859c3.1367 3.1406 3.625 8.0625 1.1562 11.758-2.4688 3.6914-7.1992 5.125-11.305 3.4258-4.1016-1.6992-6.4336-6.0586-5.5664-10.418 0.86719-4.3555 4.6875-7.4922 9.1289-7.4922 2.4727 0 4.8398 0.98047 6.5859 2.7266zm-50 33.516 0.99219-0.99609 1.9922 1.9922-13.395 13.391-1.9883-1.9883zm7.1367 7.3594-12.398 12.398 1.9883 1.9883 13.391-13.391-1.9883-1.9883zm7.1367 7.3633-12.398 12.395 1.9883 1.9883 13.391-13.387-1.9883-1.9883z" fill-rule="evenodd"/>
</svg>