<svg xmlns="http://www.w3.org/2000/svg" data-name="Layer 1" viewBox="-5.0 -10.0 110.0 100.0" x="0px" y="0px"><defs><style>
      .cls-1 {
        fill-rule: evenodd;
        stroke-width: 0px;
      }
    </style></defs><path class="cls-1" d="m58.062,32.819H14.405l-8.38,51.568h87.95l-8.38-51.568h-3.714c-1.901,4.017-5.29,7.855-8.213,11.165-1.047,1.186-2.032,2.302-2.873,3.346-.366.455-1.031.527-1.486.161-.066-.053-.123-.112-.173-.176-.838-1.04-1.819-2.151-2.862-3.332-2.923-3.31-6.312-7.148-8.213-11.165h0Zm14.586-11.465c-.685-.685-1.631-1.108-2.676-1.108s-1.991.424-2.676,1.108-1.108,1.631-1.108,2.676.424,1.991,1.108,2.676c.685.685,1.631,1.108,2.676,1.108s1.992-.424,2.676-1.108c.685-.685,1.108-1.631,1.108-2.676s-.424-1.992-1.108-2.676h0Zm-2.676-3.228c1.63,0,3.106.661,4.175,1.73,1.069,1.068,1.729,2.545,1.729,4.175s-.661,3.106-1.729,4.175c-1.069,1.068-2.545,1.729-4.175,1.729s-3.106-.661-4.175-1.729c-1.069-1.068-1.729-2.545-1.729-4.175s.661-3.106,1.729-4.175,2.545-1.73,4.175-1.73h0Zm10.226,13.29c-1.702,3.912-5.157,7.826-8.11,11.169-.749.848-1.467,1.662-2.115,2.426-.648-.764-1.366-1.577-2.115-2.426-2.952-3.343-6.408-7.257-8.11-11.168-.017-.05-.038-.098-.062-.144-.623-1.47-.996-2.94-.996-4.377,0-3.116,1.263-5.936,3.305-7.978,2.042-2.042,4.862-3.305,7.978-3.305s5.936,1.263,7.978,3.304c2.042,2.042,3.305,4.862,3.305,7.978,0,1.438-.372,2.907-.996,4.378-.024.046-.044.093-.061.143h0Zm-31.662,30.007c.221-.703.462-1.403.746-2.084.167-.398.555-.655.987-.651.756.012,1.257.771.969,1.469-.259.623-.478,1.263-.681,1.907-.118.365-.406.627-.779.714-.801.173-1.486-.573-1.241-1.355h0Zm-3.832,7.161c.47-.391,1.261-1.351,1.26-1.35.433-.601,1.323-.591,1.741.022.248.372.242.844-.015,1.209-.462.641-1.015,1.238-1.623,1.743-.305.256-.728.32-1.094.165-.728-.309-.874-1.28-.268-1.788h0Zm19.091-18.274c-.437-.386-.477-1.054-.091-1.49s1.054-.477,1.49-.091l3.577,3.167c.051.044.097.092.139.144l.003.004.002.002.014.019h.001s.014.021.014.021l.012.017.003.005h0s.014.021.014.021h0s.013.022.013.022h0s.012.022.012.022h0s.002.005.002.005c.091.161.142.348.137.546-.006.265-.11.506-.276.687l-3.168,3.578c-.386.437-1.054.477-1.49.091s-.477-1.054-.091-1.49l1.655-1.87c-1.796,0-3.661.079-5.445.358-2.473.386-4.804,1.156-6.584,2.641-.448.373-1.114.311-1.486-.137s-.311-1.114.137-1.486c2.115-1.763,4.797-2.665,7.611-3.104,1.744-.272,3.532-.367,5.26-.382l-1.467-1.299h0Zm-28.593,21.238c.203.203.328.483.328.793s-.126.59-.328.793-.483.328-.793.328-.59-.126-.793-.328-.328-.483-.328-.793.126-.59.328-.793.483-.328.793-.328.59.126.793.328h0Zm-.793-2.448c.895,0,1.705.363,2.292.95.269.269.491.585.652.934.1-.046.209-.078.324-.092.671-.076,1.344-.179,2.007-.311.634-.128,1.234.338,1.268.984.028.525-.334.99-.849,1.094-.721.143-1.451.256-2.181.339-.116.013-.228.007-.335-.015-.128.638-.443,1.208-.886,1.65-.587.587-1.397.95-2.292.95s-1.705-.363-2.292-.95-.95-1.397-.95-2.292.363-1.705.95-2.292c.587-.587,1.397-.95,2.292-.95h0Zm1.274-25.451c.59.59.955,1.406.955,2.307s-.365,1.717-.955,2.307c-.59.59-1.406.955-2.307.955s-1.717-.365-2.307-.955c-.59-.59-.955-1.406-.955-2.307s.365-1.717.955-2.307c.59-.59,1.406-.955,2.307-.955s1.717.365,2.307.955h0Zm-2.307-3.075c1.486,0,2.831.602,3.805,1.576.974.974,1.576,2.319,1.576,3.805s-.602,2.831-1.576,3.805-2.319,1.576-3.805,1.576-2.832-.602-3.805-1.576c-.974-.974-1.576-2.319-1.576-3.805s.602-2.832,1.576-3.805c.974-.974,2.319-1.576,3.805-1.576h0Zm7.037.901c1.801,1.801,2.915,4.289,2.915,7.037,0,4.694-4.506,9.797-8.15,13.923-.636.72-1.247,1.412-1.802,2.064-.555-.652-1.166-1.344-1.802-2.064-3.644-4.126-8.15-9.229-8.15-13.923,0-2.748,1.114-5.236,2.915-7.037,1.801-1.801,4.289-2.915,7.037-2.915s5.236,1.114,7.037,2.915h0Zm-7.037-5.034c3.333,0,6.351,1.351,8.536,3.536,2.185,2.185,3.536,5.202,3.536,8.536,0,5.484-4.804,10.924-8.688,15.322-.932,1.056-1.809,2.049-2.56,2.981-.366.455-1.031.527-1.486.161-.066-.053-.123-.112-.173-.176-.748-.928-1.62-1.916-2.548-2.967-3.884-4.399-8.688-9.838-8.688-15.322,0-3.333,1.351-6.351,3.536-8.535,2.184-2.184,5.202-3.536,8.535-3.536Z"/></svg>