<svg xmlns="http://www.w3.org/2000/svg" xmlns:xlink="http://www.w3.org/1999/xlink" version="1.1" x="0px" y="0px" viewBox="0 0 100 125" style="enable-background:new 0 0 100 100;" xml:space="preserve"><path d="M50,26c-7.168,0-13,5.832-13,13s5.832,13,13,13s13-5.832,13-13S57.168,26,50,26z M56.875,37.998l-2.416,2.722l0.332,3.618  c0.069,0.752-0.689,1.306-1.385,1.013L50,43.914l-3.407,1.438c-0.696,0.294-1.454-0.261-1.385-1.013l0.332-3.618l-2.416-2.722  c-0.505-0.57-0.214-1.473,0.529-1.639l3.59-0.806l1.9-3.139c0.389-0.643,1.322-0.643,1.711,0l1.9,3.139l3.59,0.806  C57.089,36.525,57.38,37.428,56.875,37.998z M56.273,62.411l6.395,1.078c0.947,0.162,1.872-0.375,2.207-1.274l2.264-6.077  l6.077-2.264c0.899-0.335,1.434-1.261,1.274-2.207l-1.078-6.395l4.131-4.999c0.611-0.739,0.611-1.809,0-2.548l-4.131-4.999  l1.078-6.395c0.16-0.946-0.375-1.872-1.274-2.207l-6.077-2.264l-2.264-6.077c-0.334-0.898-1.26-1.438-2.207-1.274l-6.395,1.078  l-4.999-4.131c-0.739-0.611-1.809-0.611-2.548,0l-4.999,4.131l-6.395-1.078c-0.945-0.16-1.872,0.375-2.207,1.274l-2.264,6.077  l-6.077,2.264c-0.899,0.335-1.434,1.261-1.274,2.207l1.078,6.395l-4.131,4.999c-0.611,0.739-0.611,1.809,0,2.548l4.131,4.999  l-1.078,6.395c-0.16,0.946,0.375,1.872,1.274,2.207l6.077,2.264l2.264,6.077c0.334,0.898,1.254,1.433,2.207,1.274l6.395-1.078  l4.999,4.131C49.096,66.847,49.548,67,50,67s0.904-0.153,1.274-0.458L56.273,62.411z M33,39c0-9.374,7.626-17,17-17s17,7.626,17,17  s-7.626,17-17,17S33,48.374,33,39z M78.821,82.225c-0.596,0.547-1.462,0.68-2.196,0.338l-11.007-5.134l-5.125,11.005  c-0.329,0.707-1.038,1.156-1.812,1.156c-0.029,0-0.058,0-0.087-0.002c-0.809-0.035-1.516-0.554-1.793-1.314l-6.305-17.317  c1.215-0.102,2.383-0.552,3.328-1.333l3.588-2.965l4.591,0.774c0.325,0.055,0.665,0.084,1.001,0.084c2.491,0,4.749-1.57,5.619-3.907  l1.625-4.362l1.344-0.501l7.757,21.319C79.626,80.826,79.417,81.678,78.821,82.225z M46.178,69.625  c0.943,0.78,2.111,1.229,3.325,1.332l-6.304,17.317c-0.277,0.76-0.984,1.279-1.793,1.314c-0.029,0.001-0.058,0.002-0.087,0.002  c-0.775,0-1.483-0.449-1.812-1.156l-5.125-11.005l-11.007,5.134c-0.732,0.342-1.6,0.209-2.196-0.338  c-0.596-0.546-0.805-1.398-0.528-2.158l7.756-21.32l1.345,0.501l1.626,4.363c0.868,2.335,3.127,3.905,5.62,3.905  c0.332,0,0.666-0.028,0.994-0.083l4.597-0.775L46.178,69.625z"/></svg>