<svg xmlns="http://www.w3.org/2000/svg" version="1.1" viewBox="-5.0 -10.0 110.0 100.0">
 <path d="m58.551 1.418c5.5469-0.007813 10.828 2.3555 14.523 6.4883 3.6953 4.1328 5.4492 9.6484 4.8203 15.156-0.625 5.5078-3.5742 10.488-8.1016 13.688l-0.23828 0.17578h-9.375v-7.293l4.707-8.1758c1.125-0.10547 2.0781-0.86719 2.4375-1.9375 0.35547-1.0703 0.046875-2.2539-0.78906-3.0117-0.83594-0.76172-2.0391-0.95703-3.0742-0.5-1.0312 0.45313-1.6992 1.4766-1.6992 2.6055 0 0.42969 0.097656 0.85156 0.28125 1.2422l-3.4922 6.1875-3.543-6.125h0.003907c0.18359-0.39062 0.27734-0.8125 0.28125-1.2422 0.003906-1.1406-0.66797-2.1758-1.7109-2.6328-1.0469-0.46094-2.2617-0.25781-3.1016 0.51953-0.83594 0.77344-1.1328 1.9727-0.75781 3.0469 0.37891 1.0781 1.3594 1.8281 2.4961 1.9102l4.707 8.1758v7.293h-9.375l-0.23828-0.17578c-4.5664-3.1875-7.5469-8.1758-8.1875-13.707s1.1172-11.07 4.832-15.219c3.7148-4.1445 9.0273-6.5 14.594-6.4688zm-12.977 62.82 2.0195 3.4688c0.375 0.66016 0.14844 1.5-0.51172 1.875l-17.25 9.9922c-0.65625 0.375-1.4922 0.15234-1.875-0.5l-2.0195-3.5c-0.37891-0.65625-0.15625-1.4961 0.5-1.875l17.312-9.9609c0.31641-0.18359 0.69141-0.23438 1.043-0.14062 0.35156 0.09375 0.65234 0.32422 0.83203 0.64062zm-18.375 6.418 13.844-8c-1.7188-9.4492-1.8633-7.9688-8.0312-11.531l-11.688-6.75c-1.3086-0.75391-2.9766-0.30469-3.7305 1s-0.30469 2.9766 1 3.7305l9.7617 5.6367v-0.003907c0.26562 0.14844 0.46094 0.39453 0.54297 0.68359 0.078124 0.29297 0.039062 0.60547-0.10938 0.86719-0.15234 0.26172-0.40234 0.45313-0.69531 0.52734-0.29297 0.074219-0.60547 0.027344-0.86328-0.12891-3.125-1.7812-6.9258-3.7383-9.8242-5.668-1.1133-0.66797-1.9258-1.7422-2.2617-3 0.26172-0.050781-6.832-21.438-7.457-23.363-0.46875-1.6562-2.1562-2.6523-3.832-2.2617-1.6602 0.45312-2.6445 2.1641-2.1992 3.8242 2.5742 9.5938 5.875 20.145 7.9688 29.73 0.45703 2.082 3.8867 4.168 7.5312 6.25 4.0742 2.375 8.4062 4.8945 10.043 8.4492zm17.594-3.6445c-0.36719-0.63281-1.0742-0.98047-1.7969-0.88281-0.71875 0.09375-1.3125 0.61328-1.5039 1.3164-0.1875 0.70313 0.0625 1.4492 0.63672 1.8945 0.57812 0.44531 1.3633 0.5 1.9961 0.14062 0.86328-0.5 1.1602-1.6055 0.66797-2.4688zm9.625 16.051-2.0117 3.5c-0.375 0.66016-0.14844 1.4961 0.51172 1.875l17.25 9.957c0.3125 0.1875 0.6875 0.23828 1.0391 0.14453 0.35547-0.097656 0.65234-0.32812 0.83594-0.64453l2.0195-3.5c0.37891-0.65625 0.15625-1.4922-0.5-1.875l-17.262-9.957c-0.3125-0.18359-0.6875-0.23438-1.0391-0.14062-0.35547 0.09375-0.65234 0.32422-0.83594 0.64062zm18.383 6.418-13.844-7.9922c1.7188-9.457 1.8633-7.9805 8.0312-11.543l11.688-6.75v0.003907c1.3086-0.75391 2.9766-0.30859 3.7305 1 0.75391 1.3047 0.30469 2.9727-1 3.7266l-9.7617 5.6367c-0.26562 0.14453-0.46094 0.39062-0.54297 0.68359-0.078124 0.29297-0.039062 0.60156 0.10938 0.86719 0.15234 0.26172 0.40234 0.44922 0.69531 0.52734 0.29297 0.074219 0.60547 0.027344 0.86328-0.12891 3.125-1.7812 6.9258-3.7383 9.8242-5.668 1.1133-0.66797 1.9219-1.7383 2.2617-2.9883-0.26172-0.0625 6.832-21.438 7.457-23.375 0.47266-1.6562 2.1562-2.6484 3.832-2.2617 1.6602 0.45312 2.6445 2.1602 2.1992 3.8242-2.5742 9.6055-5.875 20.156-7.9688 29.738-0.45703 2.082-3.8867 4.1133-7.5312 6.25-4.0742 2.375-8.4062 4.9062-10.043 8.4492zm-17.594-3.6367c0.36328-0.63281 1.0703-0.98438 1.793-0.89062 0.72656 0.089844 1.3203 0.60938 1.5117 1.3125 0.19141 0.70703-0.0625 1.4531-0.63672 1.8984-0.57812 0.44531-1.3672 0.5-2 0.13672-0.86328-0.49219-1.1602-1.5938-0.66797-2.457zm12.98-45.688h-19.23v2.207h19.23zm0 5.4375h-19.23v2.207h19.23zm-0.34375 5.4492h-18.594c1.1406 4.1914 4.9492 7.1016 9.2969 7.1016s8.1562-2.9102 9.2969-7.1016z" fill-rule="evenodd"/>
</svg>