<svg xmlns="http://www.w3.org/2000/svg" xmlns:xlink="http://www.w3.org/1999/xlink" version="1.1" x="0px" y="0px" viewBox="0 0 90 112.5" enable-background="new 0 0 90 90" xml:space="preserve"><path d="M52.908,32.677c0.281,0.021,0.546,0.125,0.744,0.319l2.01,1.979c0.527,0.521,0.527,1.359,0,1.88l-9.599,9.713l-2.537,2.506  c-0.525,0.521-1.375,0.521-1.9,0l-7.328-7.313c-0.521-0.527-0.521-1.375,0-1.901l2.047-2.068c0.52-0.525,1.364-0.525,1.885,0  l4.359,4.35l9.005-8.989C51.928,32.823,52.439,32.641,52.908,32.677z M44.965,19.323c-0.109,0-0.219,0.026-0.313,0.067l-18.042,7.83  c-0.396,0.135-0.667,0.514-0.667,0.932v5.281c0,7.989,2.38,14.266,6.063,18.807c3.692,4.546,7.984,7.854,12.974,10.573  c5-2.719,9.287-6.021,12.975-10.573c3.687-4.552,6.063-10.823,6.063-18.807v-5.281c0-0.423-0.262-0.797-0.667-0.932l-18.043-7.83  C45.189,19.338,45.075,19.318,44.965,19.323z"/><path d="M77.46,19.089c2.713,2.557,3.994,5.468,3.848,8.131c-0.15,2.64-1.724,4.963-4.17,6.03c-2.448,1.068-4.615,0.719-6.199-0.614  c-1.599-1.35-2.631-3.636-2.62-6.527c0-0.588,0.442-0.662,0.77-0.542c2.178,0.819,3.98,1.526,5.486,2.928  c-0.652-3.324,0.942-6.705,1.973-9.209C76.726,18.843,77.179,18.829,77.46,19.089z"/><path d="M83.299,47.291c0.839,3.636,0.276,6.766-1.324,8.896c-1.588,2.115-4.187,3.167-6.817,2.699  c-2.631-0.475-4.24-1.969-4.813-3.959c-0.578-2.01-0.167-4.485,1.454-6.879c0.328-0.491,0.738-0.308,0.943-0.021  c1.348,1.891,2.457,3.473,2.932,5.479c1.301-3.124,4.505-5.047,6.755-6.558C82.83,46.683,83.21,46.917,83.299,47.291z"/><path d="M77.507,61.755c-0.797,3.64-2.646,6.234-5.005,7.468c-2.338,1.229-5.145,1.067-7.317-0.484  c-2.172-1.557-2.986-3.594-2.647-5.635c0.333-2.063,1.771-4.125,4.262-5.6c0.505-0.296,0.796,0.043,0.859,0.391  c0.412,2.287,0.729,4.193,0.297,6.209c2.516-2.267,6.235-2.631,8.916-3.032C77.345,61,77.589,61.381,77.507,61.755z"/><path fill-rule="evenodd" clip-rule="evenodd" d="M48.403,73.791c0,1.892-1.532,3.429-3.423,3.429s-3.421-1.537-3.421-3.429  c0-1.891,1.531-3.421,3.421-3.421S48.403,71.9,48.403,73.791z"/><path d="M71.084,23.813c-4.848-1.532-5.276-4.771-5.276-9.979c0-1.067,0.178-1.177,1-1.004c5.464,1.15,7.663,6.187,5.652,10.5  C72.127,24.031,71.72,24.01,71.084,23.813z"/><path d="M82.527,32.234c2.089,3.084,2.699,6.208,1.969,8.771c-0.719,2.543-2.766,4.469-5.391,4.975  c-2.625,0.505-4.661-0.313-5.912-1.964c-1.26-1.661-1.771-4.125-1.124-6.942c0.134-0.574,0.577-0.547,0.875-0.354  c1.938,1.276,3.542,2.354,4.708,4.056c0.089-3.385,2.385-6.333,3.943-8.552C81.871,31.833,82.313,31.912,82.527,32.234z"/><path d="M66.794,72.964c-2.412,2.838-5.257,4.265-7.923,4.256c-2.64-0.017-5.041-1.47-6.233-3.86  c-1.193-2.391-0.953-4.573,0.296-6.224c1.265-1.662,3.5-2.813,6.385-2.948c0.589-0.025,0.688,0.412,0.578,0.745  c-0.704,2.213-1.317,4.052-2.641,5.624c3.281-0.823,6.74,0.605,9.298,1.5C67.007,72.22,67.043,72.666,66.794,72.964z"/><path d="M12.501,19.089c-2.713,2.557-3.989,5.468-3.844,8.131c0.146,2.64,1.719,4.963,4.172,6.03  c2.448,1.068,4.615,0.719,6.197-0.614c1.595-1.35,2.631-3.636,2.615-6.527c0-0.588-0.443-0.662-0.771-0.542  c-2.172,0.819-3.973,1.526-5.483,2.928c0.656-3.324-0.943-6.705-1.97-9.209C13.236,18.843,12.782,18.829,12.501,19.089z"/><path d="M6.663,47.291c-0.833,3.636-0.276,6.766,1.323,8.896c1.589,2.115,4.193,3.167,6.822,2.699  c2.631-0.475,4.235-1.969,4.808-3.959c0.578-2.01,0.167-4.485-1.453-6.879c-0.328-0.491-0.735-0.308-0.943-0.021  c-1.35,1.891-2.459,3.473-2.926,5.479c-1.303-3.124-4.511-5.047-6.762-6.558C7.137,46.683,6.75,46.917,6.663,47.291z"/><path d="M12.454,61.755c0.802,3.64,2.651,6.234,5.006,7.468c2.344,1.229,5.146,1.067,7.317-0.484  c2.177-1.557,2.984-3.594,2.65-5.635c-0.338-2.063-1.77-4.125-4.26-5.6c-0.505-0.296-0.797,0.043-0.86,0.391  c-0.411,2.287-0.733,4.193-0.302,6.209c-2.516-2.267-6.234-2.631-8.912-3.032C12.621,61,12.37,61.381,12.454,61.755z"/><path d="M18.876,23.813c4.849-1.532,5.282-4.771,5.282-9.979c0-1.067-0.183-1.177-1-1.004c-5.468,1.15-7.667,6.187-5.651,10.5  C17.834,24.031,18.241,24.01,18.876,23.813z"/><path d="M7.434,32.234c-2.088,3.084-2.692,6.208-1.968,8.771c0.724,2.543,2.771,4.469,5.395,4.975  c2.62,0.505,4.658-0.313,5.912-1.964c1.26-1.661,1.765-4.125,1.12-6.942c-0.131-0.574-0.579-0.547-0.869-0.354  c-1.942,1.276-3.548,2.354-4.709,4.056c-0.093-3.385-2.391-6.333-3.943-8.552C8.094,31.833,7.652,31.912,7.434,32.234z"/><path d="M23.168,72.964c2.412,2.838,5.26,4.265,7.921,4.256c2.641-0.017,5.048-1.47,6.24-3.86c1.193-2.391,0.948-4.573-0.303-6.224  c-1.266-1.662-3.495-2.813-6.386-2.948c-0.588-0.025-0.681,0.412-0.577,0.745c0.708,2.213,1.317,4.052,2.646,5.624  c-3.287-0.823-6.739,0.605-9.296,1.5C22.96,72.22,22.917,72.666,23.168,72.964z"/></svg>