<svg xmlns="http://www.w3.org/2000/svg" viewBox="0 0 31.57 23.637500000000003" x="0px" y="0px"><defs><style>.cls-1{fill:#000000;}</style></defs><title>Fichier 1026</title><g data-name="Calque 2"><g data-name="Calque 2"><path class="cls-1" d="M2.3,15.69a2.41,2.41,0,0,0,.88.16H14.42v4a4.07,4.07,0,0,0,1.52,3.3,2.51,2.51,0,0,0,3,0l11.08-8a4.09,4.09,0,0,0,1.53-3.3,4.1,4.1,0,0,0-1.52-3.3L19,.52a2.51,2.51,0,0,0-3,0,4.06,4.06,0,0,0-1.52,3.3v4H3.18A2.41,2.41,0,0,0,2.3,8,4,4,0,0,0,0,11.85,4,4,0,0,0,2.3,15.69Z"/></g></g></svg>