<svg xmlns="http://www.w3.org/2000/svg" version="1.1" viewBox="-5.0 -10.0 110.0 120.0">
 <path d="m80.938 75.332v3.4609c0 1.0703-0.87109 1.9375-1.9375 1.9375h-3.4609c-1.0703 0-1.9375-0.87109-1.9375-1.9375v-3.4609c0-1.0703 0.87109-1.9375 1.9375-1.9375h3.4609c1.0703 0 1.9375 0.87109 1.9375 1.9375zm-1.9375 6.4844h-3.4609c-1.0703 0-1.9375 0.87109-1.9375 1.9375v3.4609c0 1.0703 0.87109 1.9375 1.9375 1.9375h3.4609c1.0703 0 1.9375-0.87109 1.9375-1.9375v-3.4609c0-1.0703-0.87109-1.9375-1.9375-1.9375zm0-16.84h-3.4609c-1.0703 0-1.9375 0.87109-1.9375 1.9375v3.4609c0 1.0703 0.87109 1.9375 1.9375 1.9375h3.4609c1.0703 0 1.9375-0.87109 1.9375-1.9375v-3.4609c0-1.0703-0.87109-1.9375-1.9375-1.9375zm-9.1484 0h-3.4609c-1.0703 0-1.9375 0.87109-1.9375 1.9375v3.4609c0 1.0703 0.87109 1.9375 1.9375 1.9375h3.4609c1.0703 0 1.9375-0.87109 1.9375-1.9375v-3.4609c0-1.0703-0.87109-1.9375-1.9375-1.9375zm0 16.84h-3.4609c-1.0703 0-1.9375 0.87109-1.9375 1.9375v3.4609c0 1.0703 0.87109 1.9375 1.9375 1.9375h3.4609c1.0703 0 1.9375-0.87109 1.9375-1.9375v-3.4609c0-1.0703-0.87109-1.9375-1.9375-1.9375zm0-8.4219h-3.4609c-1.0703 0-1.9375 0.87109-1.9375 1.9375v3.4609c0 1.0703 0.87109 1.9375 1.9375 1.9375h3.4609c1.0703 0 1.9375-0.87109 1.9375-1.9375v-3.4609c0-1.0703-0.87109-1.9375-1.9375-1.9375zm24.449-22.609v38.691c0 2.3359-1.8984 4.2344-4.2344 4.2344h-25.59c-2.3359 0-4.2344-1.8984-4.2344-4.2344v-0.51172h-53.473c-0.58984 0-1.0703-0.48047-1.0703-1.0703v-68.312c0-0.28516 0.10938-0.55469 0.3125-0.75781l12.223-12.223c0.20312-0.20312 0.46875-0.3125 0.75781-0.3125h51.059c0.58984 0 1.0703 0.48047 1.0703 1.0703v39.191h18.945c2.3359 0 4.2344 1.8984 4.2344 4.2344zm-64.246-24.75c1.1211-1.2617 2.3945-2.6914 2.3945-4.9648 0-2.9883-2.4297-5.4219-5.4219-5.4219-2.9883 0-5.4219 2.4297-5.4219 5.4219 0 0.58984 0.48047 1.0703 1.0703 1.0703 0.58984 0 1.0703-0.48047 1.0703-1.0703 0-1.8086 1.4727-3.2812 3.2812-3.2812s3.2812 1.4727 3.2812 3.2812c0 1.3594-0.69922 2.2461-1.8516 3.543-1.1133 1.25-2.4961 2.8086-2.4961 5.2656 0 0.58984 0.48047 1.0703 1.0703 1.0703s1.0703-0.48047 1.0703-1.0703c0-1.6445 0.90625-2.6641 1.957-3.8477zm-2.8633 6.5078h-0.33203c-0.58984 0-1.0703 0.48047-1.0703 1.0703 0 0.58984 0.48047 1.0703 1.0703 1.0703h0.33203c0.58984 0 1.0703-0.48047 1.0703-1.0703 0-0.58984-0.48047-1.0703-1.0703-1.0703zm10.148-4.582c0 0.58984 0.48047 1.0703 1.0703 1.0703h19.191c0.58984 0 1.0703-0.48047 1.0703-1.0703 0-0.58984-0.48047-1.0703-1.0703-1.0703h-19.191c-0.58984 0-1.0703 0.48047-1.0703 1.0703zm1.0703-4.5508h19.191c0.58984 0 1.0703-0.48047 1.0703-1.0703s-0.48047-1.0703-1.0703-1.0703h-19.191c-0.58984 0-1.0703 0.48047-1.0703 1.0703s0.48047 1.0703 1.0703 1.0703zm-1.0703 10.203c0 0.58984 0.48047 1.0703 1.0703 1.0703h19.191c0.58984 0 1.0703-0.48047 1.0703-1.0703 0-0.58984-0.48047-1.0703-1.0703-1.0703h-19.191c-0.58984 0-1.0703 0.48047-1.0703 1.0703zm0 10.633v-3.9492h-17.051v3.9492zm19.191 0v-3.9492h-17.051v3.9492zm0 26.852v-4.5703h-17.051v4.5703zm-17.051 2.1406v3.707h17.051v-3.707zm17.051-8.8516v-4.5703h-17.051v4.5703zm0-6.7109v-4.5703h-17.051v4.5703zm-19.191 13.422v-4.5703h-17.051v4.5703zm-17.051 2.1406v3.707h17.051v-3.707zm17.051-8.8516v-4.5703h-17.051v4.5703zm0-6.7109v-4.5703h-17.051v4.5703zm21.328-40.953c0-0.58984-0.48047-1.0703-1.0703-1.0703h-19.191c-0.58984 0-1.0703 0.48047-1.0703 1.0703s0.48047 1.0703 1.0703 1.0703h19.191c0.58984 0 1.0703-0.48047 1.0703-1.0703zm-49.316 1.7891h8.5703v-8.5703zm82.809 32.273c0-1.1562-0.94141-2.0977-2.0977-2.0977h-25.59c-1.1562 0-2.0977 0.94141-2.0977 2.0977v38.691c0 1.1562 0.94141 2.0977 2.0977 2.0977h25.59c1.1562 0 2.0977-0.94141 2.0977-2.0977zm-4.0156 22.609h-3.4609c-1.0703 0-1.9375 0.87109-1.9375 1.9375v11.879c0 1.0703 0.87109 1.9375 1.9375 1.9375h3.4609c1.0703 0 1.9375-0.87109 1.9375-1.9375v-11.879c0-1.0703-0.87109-1.9375-1.9375-1.9375zm0.87109-22.547h-23.492c-0.58984 0-1.0703 0.48047-1.0703 1.0703v9.875c0 0.58984 0.48047 1.0703 1.0703 1.0703h23.492c0.58984 0 1.0703-0.48047 1.0703-1.0703v-9.875c0-0.58984-0.48047-1.0703-1.0703-1.0703zm-0.87109 14.129h-3.4609c-1.0703 0-1.9375 0.87109-1.9375 1.9375v3.4609c0 1.0703 0.87109 1.9375 1.9375 1.9375h3.4609c1.0703 0 1.9375-0.87109 1.9375-1.9375v-3.4609c0-1.0703-0.87109-1.9375-1.9375-1.9375z" fill="#003087"/>
</svg>