<svg xmlns="http://www.w3.org/2000/svg" xmlns:xlink="http://www.w3.org/1999/xlink" version="1.1" x="0px" y="0px" viewBox="0 0 512 640" style="enable-background:new 0 0 512 512;" xml:space="preserve">
 <g>
  <ellipse transform="matrix(0.9871 -0.1602 0.1602 0.9871 -63.0719 36.1386)" cx="192.617" cy="409.278" rx="51.722" ry="51.722" fill="#FFB74D"/>
  <ellipse transform="matrix(0.9871 -0.1602 0.1602 0.9871 -60.6583 66.0789)" cx="379.531" cy="409.278" rx="51.722" ry="51.722" fill="#FFB74D"/>
  <path d="M338.313,244.616c53.381,0,96.809-43.428,96.809-96.808S391.693,51,338.313,51c-53.38,0-96.808,43.428-96.808,96.808   S284.933,244.616,338.313,244.616z M304.379,136.462h23.378v-23.377c0-5.523,4.478-10,10-10s10,4.477,10,10v23.377h23.377   c5.522,0,10,4.477,10,10s-4.478,10-10,10h-23.377v23.377c0,5.523-4.478,10-10,10s-10-4.477-10-10v-23.377h-23.378   c-5.522,0-10-4.477-10-10S298.856,136.462,304.379,136.462z" fill="#FFB74D"/>
  <path d="M494.665,140.252c-1.897-2.394-4.784-3.791-7.839-3.791h-27.812c-5.522,0-10,4.477-10,10c0,5.523,4.478,10,10,10H454.8   c-4.443,60.382-54.99,108.154-116.488,108.154s-112.043-47.772-116.487-108.154h-98.309l-15.015-71.958   c-3.974-18.244-20.411-31.485-39.083-31.485H25.174c-5.522,0-10,4.477-10,10c0,5.523,4.478,10,10,10h44.245   c9.336,0,17.555,6.621,19.523,15.656l42.752,204.888c4.811,23.054,25.395,39.787,48.945,39.787h232.916   c23.321,0,43.337-15.856,48.673-38.558l34.332-146.042C497.26,145.777,496.562,142.646,494.665,140.252z" fill="#FFB74D"/>
 </g>
</svg>