<svg xmlns="http://www.w3.org/2000/svg" version="1.1" viewBox="-5.0 -10.0 110.0 100.0">
 <path d="m52.98 89.52c15.148-1.2695 24.07-12.461 26.449-15.852 0.46094-0.64844 0.89062-1.3203 1.3008-2 5.8594-9.6484 4.5117-22.059-3.2617-30.191l-0.12109-0.12891c-3.4883-3.6289-6.4883-5.8789-9.3984-8.0508-3.6289-2.7188-7.0586-5.2891-10.41-9.9219-2.4688-3.4102-4.4102-7.2812-5.7812-11.531-3.9219 3.5117-7.1992 7.7305-9.5703 12.379-4.3516 8.5312-4.8711 16.691-4.5391 22.02l0.28125 4.4492-3.8008-2.3203c-2.9805-1.8203-5.6484-4.0703-7.9492-6.6992-1.4297-1.6406-2.6914-3.4102-3.7812-5.2891-7.4414 10.102-8.8711 23.691-3.4102 34.809 1.2617 2.5703 2.8008 4.8398 4.5508 6.8398l17.879-16.32 7.0781 8.2617 13.879-13.559h-5.6914v-4.6484h13.711v13.711h-4.6484v-5.8594l-17.551 17.148-7.1914-8.3789-14.141 12.91c7.6016 6.4609 17.66 8.9219 26.129 8.2109z" fill="#FFB74D"/>
</svg>