<svg xmlns="http://www.w3.org/2000/svg" version="1.1" viewBox="-5.0 -10.0 110.0 100.0">
  <path fill="#003087" d="m13.93 15.945c-3.8945 0-7.0547 3.1133-7.1289 6.9766v6.0391h86.395v-6.0391c-0.074218-3.8711-3.2422-6.9883-7.1406-6.9883zm19.645 33.918v0.003907-0.003907c1.4961 0 2.707 1.2148 2.707 2.707v10.035c0 1.4961-1.2148 2.7109-2.707 2.7109h-12.406c-0.71875 0-1.4062-0.28516-1.9141-0.79297-0.50781-0.50781-0.79297-1.1953-0.79297-1.9141v-10.039c0-0.71875 0.28516-1.4062 0.79297-1.9141 0.50391-0.50781 1.1875-0.79297 1.9062-0.79297zm36 10.09c0.69922 0 1.3984 0.26953 1.9336 0.80078 1.0664 1.0703 1.0664 2.8008 0 3.8672l-6.5664 6.5625c-0.53125 0.53516-1.2305 0.80078-1.9336 0.80078-0.69922 0-1.3984-0.26562-1.9297-0.80078l-4.0195-4.0195c-1.0703-1.0664-1.0703-2.7969 0-3.8633 0.53125-0.53516 1.2305-0.80078 1.9297-0.80078 0.70312 0 1.4023 0.26562 1.9336 0.80078l2.0859 2.0859 4.6328-4.6328c0.53516-0.53125 1.2305-0.80078 1.9297-0.80078zm23.621-16.93v0.003906h-86.395v26.941c0.074219 3.8789 3.2461 7.0039 7.1445 7.0039l34.156 0.003906c-0.19141-0.3125-0.375-0.63672-0.55078-0.97266v-0.003906c-0.71484-1.3711-1.2344-2.8711-1.6211-4.4727l-0.003907-0.011719c-1.2188-5.0586-1.0312-10.965-0.87891-15.746l0.035156-1.1445v-0.007812c0.085938-2.6367 2.0352-4.8438 4.6406-5.25l13.773-2.1484c0.11719-0.019531 0.28125-0.042969 0.46484-0.058594 0.089843-0.007812 0.19141-0.011718 0.29687-0.015625 0.11719-0.003906 0.13672-0.003906 0.13672-0.003906 0.17578 0 0.33594 0.011719 0.46875 0.023437h0.003907c0.16797 0.015626 0.3125 0.039063 0.41016 0.054688l13.781 2.1484c2.6094 0.40625 4.5547 2.6133 4.6406 5.25l0.019531 0.57031c0.20312 6.4023 0.55859 14.973-2.4883 20.816-0.17578 0.33594-0.35938 0.66016-0.55078 0.97266h5.3711c3.9023-0.003906 7.0703-3.1289 7.1445-7.0078zm-28.816 6.8398c0.003906 0 0 0 0 0-0.17578 0-0.34766 0.023438-0.51562 0.050781l-13.719 2.1406c-1.3164 0.20703-2.3008 1.3203-2.3398 2.6484v0.003906c-0.21875 6.7969-0.5625 14.82 2.1562 20.035l0.003906 0.003906c2.8984 5.5547 8.9336 7.5391 13.504 9.1484 0.30469 0.10938 0.61328 0.16016 0.91797 0.16016h0.007812c0.30469 0 0.61719-0.050782 0.92188-0.16016 4.5664-1.6094 10.605-3.5938 13.504-9.1484v-0.003906c2.7188-5.2148 2.375-13.238 2.1602-20.035v-0.003906c-0.042969-1.3281-1.0273-2.4414-2.3398-2.6484l-13.668-2.1289c-0.1875-0.03125-0.38672-0.0625-0.58594-0.0625z"/>
</svg>