<svg xmlns="http://www.w3.org/2000/svg" viewBox="0 0 64 64" x="0px" y="0px">
  <g>
    <polygon fill="#003087" points="52 11.04 45.73 15.92 52 19.91 52 11.04"/>
    <path fill="#003087" d="M44.95,14l5.14-4h-6.1A13.146,13.146,0,0,1,44.95,14Z"/>
    <path fill="#003087" d="M51.57,22l-6.85-4.36A12.788,12.788,0,0,1,42.94,22Z"/>
    <path fill="#003087" d="M23.53,22H30a1,1,0,0,1-.707-.293L23.636,16.05a1,1,0,0,1,0-1.414l2.121-2.121a1.029,1.029,0,0,1,1.414,0L30,15.343l7.071-7.071a1,1,0,0,1,1.414,0l2.121,2.122a1,1,0,0,1,0,1.414l-9.9,9.9A1,1,0,0,1,30,22H40.47a11,11,0,1,0-16.94,0Z"/>
    <polygon fill="#003087" points="37.778 10.393 30 18.171 26.464 14.636 25.757 15.343 30 19.586 38.485 11.101 37.778 10.393"/>
    <path fill="#003087" d="M12.43,22h8.63a12.788,12.788,0,0,1-1.78-4.36Z"/>
    <path fill="#003087" d="M10,59a1,1,0,0,0,1,1H53a1,1,0,0,0,1-1V24H10Zm9-31a2.993,2.993,0,0,1,1,5.816V34a12,12,0,0,0,24,0v-.184a3,3,0,1,1,2,0V34a14,14,0,0,1-28,0v-.184A2.993,2.993,0,0,1,19,28Z"/>
    <circle fill="#003087" cx="19" cy="31" r="1"/>
    <polygon fill="#003087" points="12 19.91 18.27 15.92 12 11.04 12 19.91"/>
    <path fill="#003087" d="M19.05,13.99A13.013,13.013,0,0,1,20,10H13.91Z"/>
    <circle fill="#003087" cx="45" cy="31" r="1"/>
  </g>
</svg>