<svg xmlns="http://www.w3.org/2000/svg" version="1.1" viewBox="-5.0 -10.0 110.0 100.0">
  <path fill="#003087" d="m78.406 41.523v14.027c0 0.32812-0.007812 0.65234-0.019531 0.97266h4.9648c-0.24609 12.203-1.6328 20.262-4.5273 25.289-2.8594 4.9648-7.3594 6.9609-13.891 7.1875-0.27734-1.125-0.85156-2.1367-1.6289-2.9492l-0.085938-0.09375c-1.1719-1.1719-2.7969-1.9023-4.5781-1.9023h-8.3359c-1.7852 0-3.4062 0.73047-4.582 1.9023-1.1719 1.1719-1.9023 2.7969-1.9023 4.5781v0.48438c0 1.7852 0.73047 3.4062 1.9023 4.5781 1.1758 1.1758 2.7969 1.9023 4.582 1.9023h8.3359c1.7773 0 3.3945-0.73047 4.5742-1.9023 0.96094-0.96484 1.6211-2.2188 1.8359-3.6133 7.6094-0.25781 12.898-2.6641 16.363-8.6836 3.1719-5.5 4.6758-14.023 4.9375-26.777h2.4023c0.95703 0 1.8242-0.39063 2.4531-1.0195 0.62891-0.63672 1.0234-1.5078 1.0234-2.4609v-8.0352c0-0.95312-0.39062-1.8281-1.0234-2.4609-0.62891-0.62891-1.5039-1.0234-2.457-1.0234h-2.3828c-0.25781-12.133-3.8359-21.488-9.6992-28.004-6.5859-7.3203-16.008-11.02-26.82-11.02-10.84 0-20.254 3.6914-26.828 11.004-5.8672 6.5195-9.4336 15.883-9.6875 28.023h-2.0898c-0.95703 0-1.8242 0.39453-2.457 1.0234-0.63281 0.62891-1.0234 1.5-1.0234 2.4609v8.0352c0 0.95312 0.39453 1.8242 1.0234 2.4531 0.63281 0.63281 1.5039 1.0273 2.457 1.0273h10.074c-0.011718-0.32031-0.019531-0.64453-0.019531-0.97266v-14.027h-4.9648c0.25-11.348 3.5312-20.035 8.918-26.02 5.9805-6.6484 14.613-10.004 24.602-10.004 9.9609 0 18.602 3.3633 24.594 10.023 5.3828 5.9844 8.6719 14.664 8.9258 26.004h-4.9648zm-54.109-3.6914c5.9766 0.76172 11.652 0.42188 17.023-1.0156 5.75-1.5391 11.168-4.3438 16.242-8.4023 0.64453-0.51562 1.582-0.41016 2.1172 0.25781 2.1445 2.9219 4.6211 5.1914 7.4883 6.8477 2.4883 1.4258 5.2266 2.3633 8.2422 2.832v-2.5312c0-6.1367-2.4102-11.012-6.3242-14.402-4.2695-3.6992-10.348-5.6875-17.09-5.6875h-4.2852c-6.7422 0-12.82 1.9883-17.094 5.6875-3.9102 3.3906-6.3203 8.2656-6.3203 14.406zm51.109 3.5508c-3.5547-0.5-6.7852-1.582-9.7344-3.2695-2.8242-1.6289-5.2969-3.7656-7.4492-6.4297-5.0664 3.8281-10.445 6.5039-16.129 8.0273-5.6367 1.5078-11.57 1.8906-17.793 1.1406v14.695c0 6.1367 2.4102 11.008 6.3242 14.398 4.2734 3.7031 10.355 5.6914 17.09 5.6914h4.2852c6.7344 0 12.816-1.9883 17.086-5.6914 3.9141-3.3906 6.3242-8.2617 6.3242-14.398v-14.168z"/>
</svg>