<svg xmlns="http://www.w3.org/2000/svg" xmlns:xlink="http://www.w3.org/1999/xlink" version="1.1" x="0px" y="0px" viewBox="0 0 64 64" style="enable-background:new 0 0 64 64;" xml:space="preserve">
  <g>
    <path fill="#003087" d="M60.28,37.01h2.52l-4.92-5.6v3.2C57.87,35.94,58.96,37.01,60.28,37.01z"/>
    <path fill="#003087" d="M26.79,44.49c-2.2,0-3.98,1.78-3.98,3.98c0,2.2,1.78,3.99,3.98,3.99c2.18,0,3.94-1.75,3.98-3.92c0-0.01,0-0.01,0-0.02v-0.1v-0.01C30.74,46.24,28.97,44.49,26.79,44.49z"/>
    <path fill="#003087" d="M60.28,39.01c-2.42,0-4.4-1.97-4.4-4.4v-4.85H50.7v17.71h0.76c0.47-2.83,2.93-4.98,5.89-4.98c2.96,0,5.41,2.16,5.89,4.98H64v-8.46H60.28z"/>
    <path fill="#003087" d="M57.35,44.49c-2.2,0-3.98,1.78-3.98,3.98c0,2.2,1.78,3.99,3.98,3.99c2.2,0,3.98-1.79,3.98-3.99C61.33,46.27,59.54,44.49,57.35,44.49z"/>
    <path fill="#003087" d="M11.88,22.83H1c-0.55,0-1,0.45-1,1c0,0.55,0.45,1,1,1h10.88c0.55,0,1-0.45,1-1C12.88,23.28,12.43,22.83,11.88,22.83z"/>
    <path fill="#003087" d="M11.88,27.9H5.23c-0.55,0-1,0.45-1,1c0,0.55,0.45,1,1,1h6.65c0.55,0,1-0.45,1-1C12.88,28.34,12.43,27.9,11.88,27.9z"/>
    <path fill="#003087" d="M11.88,32.96H5.23c-0.55,0-1,0.45-1,1c0,0.55,0.45,1,1,1h6.65c0.55,0,1-0.45,1-1C12.88,33.41,12.43,32.96,11.88,32.96z"/>
    <path fill="#003087" d="M11.88,38.02H8.05c-0.55,0-1,0.45-1,1c0,0.55,0.45,1,1,1h3.83c0.55,0,1-0.45,1-1C12.88,38.47,12.43,38.02,11.88,38.02z"/>
    <path fill="#003087" d="M32.96,28.79c3.57,0,6.63-2.18,7.94-5.27c0.01-0.03,0.03-0.06,0.04-0.09c0.41-1,0.64-2.1,0.64-3.26c0-4.75-3.87-8.63-8.62-8.63c-4.75,0-8.62,3.88-8.62,8.63S28.2,28.79,32.96,28.79z M31.96,13.73c0-0.56,0.44-1,1-1c0.55,0,1,0.44,1,1v5.45h4.89c0.56,0,1,0.44,1,1c0,0.55-0.44,1-1,1h-5.89c-0.56,0-1-0.45-1-1V13.73z"/>
    <path fill="#003087" d="M32.96,30.79c-4.19,0-7.82-2.43-9.54-5.96h-6.21v22.64h3.69c0.47-2.83,2.93-4.98,5.89-4.98s5.41,2.16,5.89,4.98H48.7V24.83h-6.2C40.78,28.36,37.15,30.79,32.96,30.79z"/>
  </g>
</svg>